<?xml version="1.0" encoding="utf-8"?>
<!-- Generator: Adobe Illustrator 24.0.1, SVG Export Plug-In . SVG Version: 6.00 Build 0)  -->
<svg version="1.1" id="Layer_1" xmlns="http://www.w3.org/2000/svg" xmlns:xlink="http://www.w3.org/1999/xlink" x="0px" y="0px"
	 viewBox="0 0 25.7 30.3" style="enable-background:new 0 0 25.7 30.3;" xml:space="preserve">
<style type="text/css">
	.st0{fill:#3F3F70;}
</style>
<title>Whiteboard_1</title>
<g>
	<path class="st0" d="M22.5,2.9H3.2l0,0C1.4,2.9,0,4.4,0,6.2v14c0,1.8,1.4,3.2,3.2,3.2h19.3l0,0c1.8,0,3.2-1.5,3.2-3.2v-14
		C25.7,4.4,24.3,2.9,22.5,2.9z M24.2,19.9c0,1.1-0.9,2-2,2H3.5l0,0c-1.1,0-2-0.9-2-2V6.5c0,0,0,0,0-0.1c0-1.1,0.9-2,2-2h18.6
		c0,0,0,0,0.1,0c1.1,0,2,0.9,1.9,2v13.5H24.2z"/>
	<polygon class="st0" points="2.7,29.7 4.1,30.3 6.4,24.9 4.8,24.9 	"/>
	<polygon class="st0" points="19.3,24.9 21.6,30.3 23,29.7 21,24.9 	"/>
	<rect x="12.1" y="0" class="st0" width="1.5" height="1.4"/>
</g>
</svg>
