<?xml version="1.0" encoding="utf-8"?>
<!-- Generator: Adobe Illustrator 24.0.1, SVG Export Plug-In . SVG Version: 6.00 Build 0)  -->
<svg version="1.1" id="Layer_1" xmlns="http://www.w3.org/2000/svg" xmlns:xlink="http://www.w3.org/1999/xlink" x="0px" y="0px"
	 viewBox="0 0 31.1 32.4" style="enable-background:new 0 0 31.1 32.4;" xml:space="preserve">
<style type="text/css">
	.st0{fill:#009EF7;}
</style>
<title>Chat_1</title>
<g>
	<path class="st0" d="M15.5,0C7,0,0,6.2,0,13.8c0.1,4.2,2.1,8.1,5.5,10.5C6,24.8,6.7,28.2,7,31.1l0.2,1.3l1-0.7c2.1-1.6,6-4,7.3-4
		c8.6,0,15.6-6.2,15.6-13.8S24.1,0,15.5,0z M15.5,26.2c-1.8,0-5.4,2.3-7.2,3.5c-0.3-2.3-1-5.8-2-6.6c-3-2.2-4.8-5.6-4.9-9.3
		c0-6.8,6.3-12.3,14-12.3s14,5.5,14,12.3S23.3,26.2,15.5,26.2z"/>
	<path class="st0" d="M8.5,11.3c-1.2,0-2.1,0.9-2.1,2.1s0.9,2.1,2.1,2.1s2.1-0.9,2.1-2.1C10.6,12.3,9.7,11.3,8.5,11.3z"/>
	<path class="st0" d="M15.5,11.3c-1.2,0-2.1,0.9-2.1,2.1s0.9,2.1,2.1,2.1s2.1-0.9,2.1-2.1C17.7,12.3,16.7,11.3,15.5,11.3z"/>
	<path class="st0" d="M22.6,11.3c-1.2,0-2.1,0.9-2.1,2.1s0.9,2.1,2.1,2.1s2.1-0.9,2.1-2.1C24.7,12.3,23.8,11.3,22.6,11.3z"/>
</g>
</svg>
