<?xml version="1.0" encoding="utf-8"?>
<!-- Generator: Adobe Illustrator 24.0.1, SVG Export Plug-In . SVG Version: 6.00 Build 0)  -->
<svg version="1.1" id="Layer_1" xmlns="http://www.w3.org/2000/svg" xmlns:xlink="http://www.w3.org/1999/xlink" x="0px" y="0px"
	 viewBox="0 0 32.8 27.5" style="enable-background:new 0 0 32.8 27.5;" xml:space="preserve">
<style type="text/css">
	.st0{fill:#009EF7;}
</style>
<title>Invite_2</title>
<g>
	<path class="st0" d="M12.8,13.6c3.8,0,6.8-3,6.8-6.8S16.6,0,12.8,0C9.1,0,6.1,3,6,6.8l0,0C6.1,10.5,9.1,13.6,12.8,13.6z"/>
	<path class="st0" d="M25.5,13c-4,0-7.3,3.2-7.3,7.3c0,4,3.2,7.3,7.3,7.3s7.3-3.2,7.3-7.3C32.7,16.2,29.5,13,25.5,13z M30.4,21h-4.1
		v4.1h-1.5V21h-4.1v-1.5h4.1v-4.2h1.5v4.1h4.1V21z"/>
	<path class="st0" d="M18.9,26c-2.3-2.6-2.9-6.4-1.3-9.5c0.2-0.5,0.5-0.9,0.8-1.3c-6.4-3-14.1-0.3-17.1,6.1C0.4,23,0,24.8,0,26.8
		v0.8h20.6C20,27.1,19.4,26.6,18.9,26z"/>
</g>
</svg>
