<svg xmlns="http://www.w3.org/2000/svg" viewBox="0 0 20.32 31.5"><defs><style>.cls-1{fill:#ff2260;}</style></defs><title>Audio_2</title><g id="Layer_2" data-name="Layer 2"><g id="Layer_1-2" data-name="Layer 1"><rect class="cls-1" x="9.41" y="25.19" width="1.5" height="5.56"/><rect class="cls-1" x="7.38" y="30" width="5.56" height="1.5"/><rect class="cls-1" x="-2.81" y="11.5" width="25.93" height="1.5" transform="translate(-5.58 9.9) rotate(-41.84)"/><path class="cls-1" d="M5.45,20.19A4.25,4.25,0,0,0,9.7,24.44h1.11a4.25,4.25,0,0,0,4.25-4.25V10.87L5.45,19.48Z"/><path class="cls-1" d="M15.06,5.75A4.26,4.26,0,0,0,10.81,1.5H9.7A4.25,4.25,0,0,0,5.45,5.75V17.46l9.61-8.6Z"/><path class="cls-1" d="M5.45,5.75A4.25,4.25,0,0,1,9.7,1.5h1.11a4.26,4.26,0,0,1,4.25,4.25V8.86l1.5-1.35V5.75A5.76,5.76,0,0,0,10.81,0H9.7A5.75,5.75,0,0,0,4,5.75V18.81l1.5-1.35Z"/><path class="cls-1" d="M15.06,10.87v9.32a4.25,4.25,0,0,1-4.25,4.25H9.7a4.25,4.25,0,0,1-4.25-4.25v-.71L4,20.79A5.76,5.76,0,0,0,9.7,25.94h1.11a5.75,5.75,0,0,0,5.75-5.75V9.53Z"/></g></g></svg>