<?xml version="1.0" encoding="utf-8"?>
<!-- Generator: Adobe Illustrator 24.3.0, SVG Export Plug-In . SVG Version: 6.00 Build 0)  -->
<svg version="1.1" id="Layer_1" xmlns="http://www.w3.org/2000/svg" xmlns:xlink="http://www.w3.org/1999/xlink" x="0px" y="0px"
	 viewBox="0 0 115.8 90.9" style="enable-background:new 0 0 115.8 90.9;" xml:space="preserve">
<style type="text/css">
	.st0{fill:url(#SVGID_1_);}
	.st1{fill:url(#SVGID_2_);}
	.st2{fill:url(#SVGID_3_);}
	.st3{fill:url(#SVGID_4_);}
	.st4{fill:url(#SVGID_5_);}
</style>
<g>
	
		<linearGradient id="SVGID_1_" gradientUnits="userSpaceOnUse" x1="2.8795" y1="54.0408" x2="115.8295" y2="59.6808" gradientTransform="matrix(1 0 0 -1 0 98)">
		<stop  offset="0" style="stop-color:#FF736B"/>
		<stop  offset="1" style="stop-color:#FF2260"/>
	</linearGradient>
	<path class="st0" d="M20.5,31.8L5.6,20.4c-1.5-1.2-3.7-0.9-4.9,0.7C0.2,21.7,0,22.4,0,23.2v41.5c0,1.9,1.6,3.5,3.5,3.4
		c0.7,0,1.5-0.3,2.1-0.7l14.3-10.9C18,48.4,18.3,39.8,20.5,31.8L20.5,31.8z"/>
	
		<linearGradient id="SVGID_2_" gradientUnits="userSpaceOnUse" x1="33.3684" y1="81.5092" x2="84.1884" y2="5.9792" gradientTransform="matrix(1 0 0 -1 0 98)">
		<stop  offset="0" style="stop-color:#FF736B"/>
		<stop  offset="1" style="stop-color:#FF2260"/>
	</linearGradient>
	<circle class="st1" cx="52.9" cy="45.5" r="3.8"/>
	
		<linearGradient id="SVGID_3_" gradientUnits="userSpaceOnUse" x1="45.4019" y1="89.6115" x2="96.2319" y2="14.0816" gradientTransform="matrix(1 0 0 -1 0 98)">
		<stop  offset="0" style="stop-color:#FF736B"/>
		<stop  offset="1" style="stop-color:#FF2260"/>
	</linearGradient>
	<circle class="st2" cx="70.4" cy="45.5" r="3.8"/>
	
		<linearGradient id="SVGID_4_" gradientUnits="userSpaceOnUse" x1="57.4384" y1="97.7092" x2="108.2583" y2="22.1792" gradientTransform="matrix(1 0 0 -1 0 98)">
		<stop  offset="0" style="stop-color:#FF736B"/>
		<stop  offset="1" style="stop-color:#FF2260"/>
	</linearGradient>
	<circle class="st3" cx="87.8" cy="45.5" r="3.8"/>
	
		<linearGradient id="SVGID_5_" gradientUnits="userSpaceOnUse" x1="45.3962" y1="89.6076" x2="96.2262" y2="14.0776" gradientTransform="matrix(1 0 0 -1 0 98)">
		<stop  offset="0" style="stop-color:#FF736B"/>
		<stop  offset="1" style="stop-color:#FF2260"/>
	</linearGradient>
	<path class="st4" d="M101.9,78.2c18.1-17.4,18.7-46.2,1.3-64.3S56.9-4.7,38.8,12.7S20.2,58.9,37.6,77c16.1,16.8,42.3,18.7,60.7,4.4
		l-10-10c-14.3,9.9-33.9,6.3-43.8-8s-6.3-33.9,8-43.8c14.3-9.9,33.9-6.3,43.8,8c3.6,5.3,5.6,11.5,5.6,17.9c0,0.2,0,0.3,0,0.5
		L101.9,78.2z"/>
</g>
</svg>
