<svg xmlns="http://www.w3.org/2000/svg" xmlns:xlink="http://www.w3.org/1999/xlink" viewBox="0 0 390.48 95.49"><defs><style>.cls-1{fill:#3f3f70;}.cls-2{fill:url(#linear-gradient);}.cls-3{fill:url(#linear-gradient-2);}.cls-4{fill:url(#linear-gradient-5);}.cls-5{fill:url(#linear-gradient-6);}.cls-6{fill:url(#linear-gradient-7);}.cls-7{fill:url(#linear-gradient-8);}</style><linearGradient id="linear-gradient" x1="132.54" y1="48.54" x2="245.49" y2="42.9" gradientUnits="userSpaceOnUse"><stop offset="0" stop-color="#ff736b"/><stop offset="1" stop-color="#ff2260"/></linearGradient><linearGradient id="linear-gradient-2" x1="129.42" y1="50.01" x2="244.64" y2="50.01" xlink:href="#linear-gradient"/><linearGradient id="linear-gradient-5" x1="163.03" y1="21.06" x2="213.85" y2="96.59" xlink:href="#linear-gradient"/><linearGradient id="linear-gradient-6" x1="175.06" y1="12.96" x2="225.89" y2="88.49" xlink:href="#linear-gradient"/><linearGradient id="linear-gradient-7" x1="187.1" y1="4.86" x2="237.92" y2="80.39" xlink:href="#linear-gradient"/><linearGradient id="linear-gradient-8" x1="175.09" y1="12.94" x2="225.92" y2="88.47" xlink:href="#linear-gradient"/></defs><title>Logo_UnLock</title><g id="Layer_2" data-name="Layer 2"><g id="Layer_1-2" data-name="Layer 1"><path class="cls-1" d="M351.87,54.59l38.61,40.78-.3-11.78a22.45,22.45,0,0,0-6-14.76l-20-21.53L386.8,19.7A14,14,0,0,0,384.85,0L351.57,40.59h-8.22V18.53a14,14,0,0,0-14-14V49.22c0,17-13.3,31.41-30.3,31.94A31.29,31.29,0,1,1,298,18.59c.48,0,1,0,1.45,0a16.44,16.44,0,0,0,16-9.89l.25-.58A44.94,44.94,0,0,0,298.5,4.59,45.29,45.29,0,1,0,299,95.16c22.58-.45,41.33-18.54,44-40.57Z"/><path class="cls-1" d="M158.72,81.35H119.41V37c0-17.86-16.6-32.38-37-32.38H51.65V81.35H37C24.32,81.35,14,73.1,14,63V18.53a14,14,0,0,0-14-14V63C0,80.82,16.6,95.35,37,95.35H65.65V18.59H82.41c12.68,0,23,8.24,23,18.38V95.35h69.31A52.06,52.06,0,0,1,158.72,81.35Z"/><path class="cls-2" d="M150.14,36.36,135.23,25a3.47,3.47,0,0,0-5.57,2.76V69.28A3.47,3.47,0,0,0,135.23,72l14.29-10.89a51.47,51.47,0,0,1,.62-24.78Z"/><circle class="cls-3" cx="182.55" cy="50.01" r="3.78"/><circle class="cls-3" cx="200.04" cy="50.01" r="3.78"/><circle class="cls-3" cx="217.52" cy="50.01" r="3.78"/><circle class="cls-4" cx="182.52" cy="50.03" r="3.78"/><circle class="cls-5" cx="200.01" cy="50.03" r="3.78"/><circle class="cls-6" cx="217.49" cy="50.03" r="3.78"/><path class="cls-7" d="M231.51,82.8a45.46,45.46,0,1,0-3.58,3.1l-10-10A31.47,31.47,0,1,1,231.52,50c0,.15,0,.3,0,.45Z"/></g></g></svg>