<?xml version="1.0" encoding="utf-8"?>
<!-- Generator: Adobe Illustrator 24.3.0, SVG Export Plug-In . SVG Version: 6.00 Build 0)  -->
<svg version="1.1" id="Layer_1" xmlns="http://www.w3.org/2000/svg" xmlns:xlink="http://www.w3.org/1999/xlink" x="0px" y="0px"
	 viewBox="0 0 37 31.1" style="enable-background:new 0 0 37 31.1;" xml:space="preserve">
<style type="text/css">
	.st0{fill:#5B5BBA;}
</style>
<g id="Layer_2_1_">
	<g id="Layer_1-2">
		<path class="st0" d="M14.5,15.4c4.2,0,7.7-3.4,7.7-7.7S18.8,0,14.5,0S6.8,3.4,6.8,7.7S10.3,15.4,14.5,15.4L14.5,15.4z M14.5,1.7
			c3.3,0,6,2.7,6,6s-2.7,6-6,6s-6-2.7-6-6S11.2,1.7,14.5,1.7z"/>
		<path class="st0" d="M28.8,14.6c-4.5,0-8.2,3.7-8.2,8.2s3.7,8.2,8.2,8.2s8.2-3.7,8.2-8.2c0,0,0,0,0,0C37,18.3,33.3,14.7,28.8,14.6
			z M28.8,29.3c-3.6,0-6.5-2.9-6.5-6.5s2.9-6.5,6.5-6.5s6.5,2.9,6.5,6.5v0C35.3,26.4,32.4,29.3,28.8,29.3
			C28.8,29.4,28.8,29.4,28.8,29.3z"/>
		<polygon class="st0" points="29.7,22 29.7,17.3 28,17.3 28,22 23.3,22 23.3,23.7 28,23.7 28,28.4 29.7,28.4 29.7,23.7 34.3,23.7 
			34.3,22 		"/>
		<path class="st0" d="M21.4,29.4H1.7c0.4-6.7,6-12,12.8-12c1.9,0,3.7,0.4,5.4,1.2c0.2-0.5,0.5-1,0.9-1.5C13.5,13.7,4.8,16.7,1.4,24
			c-0.9,2-1.4,4.1-1.4,6.2v0.9h23.3C22.6,30.6,22,30,21.4,29.4z"/>
	</g>
</g>
</svg>
