<svg version="1.1" id="Layer_1" xmlns="http://www.w3.org/2000/svg" xmlns:xlink="http://www.w3.org/1999/xlink" x="0px" y="0px"
	 viewBox="0 0 23 35.6" style="enable-background:new 0 0 23 35.6;" xml:space="preserve">
<g id="Layer_2_1_">
	<g id="Layer_1-2">
		<path d="M21.8,3.4l-3.1,2.8c-0.1-3.5-3-6.2-6.5-6.2H11C7.4,0,4.5,2.9,4.5,6.5V19L0,23l1.1,1.3L23,4.7L21.8,3.4z M6.2,6.5
			c0-2.7,2.2-4.8,4.8-4.8c0,0,0,0,0,0h1.2c2.6,0,4.8,2.2,4.8,4.8v1.2L6.2,17.5V6.5z"/>
		<path d="M17,22.8c0,2.7-2.1,4.8-4.8,4.8H11c-2.7,0-4.8-2.1-4.8-4.8V22l-1.7,1.5c0.3,3.2,3,5.6,6.1,5.8v4.6H8.3v1.7h6.3v-1.7h-2.3
			v-4.6c3.5-0.1,6.4-3,6.4-6.5v-12L17,12.3V22.8z"/>
	</g>
</g>
</svg>
