<svg xmlns="http://www.w3.org/2000/svg" viewBox="0 0 35.15 36.64"><defs><style>.cls-1,.cls-2{fill:#5b5bba;}.cls-1{fill-rule:evenodd;}</style></defs><title>chat</title><g id="Layer_2" data-name="Layer 2"><g id="Layer_1-2" data-name="Layer 1"><path class="cls-1" d="M17.58,0C7.88,0,0,7,0,15.64A15,15,0,0,0,6.16,27.53c.59.53,1.41,4.39,1.81,7.67l.18,1.44,1.16-.86c2.38-1.74,6.73-4.5,8.27-4.5,9.69,0,17.57-7,17.57-15.64S27.27,0,17.58,0Zm0,29.58c-2,0-6.08,2.62-8.11,4C9.09,31,8.34,27.06,7.19,26.19A13.31,13.31,0,0,1,1.7,15.64C1.7,8,8.82,1.7,17.58,1.7S33.46,8,33.46,15.64,26.33,29.58,17.58,29.58Z"/><circle class="cls-2" cx="9.61" cy="15.19" r="2.39"/><circle class="cls-2" cx="17.58" cy="15.19" r="2.39"/><circle class="cls-2" cx="25.54" cy="15.19" r="2.39"/></g></g></svg>