<svg xmlns="http://www.w3.org/2000/svg" viewBox="0 0 31.66 36"><defs><style>.cls-1{fill:#5b5bba;}</style></defs><title>shild</title><g id="Layer_2" data-name="Layer 2"><g id="Layer_1-2" data-name="Layer 1"><path class="cls-1" d="M15.77,2.45a18,18,0,0,0,6.48,3.74,12.23,12.23,0,0,0,3.57.56A10.65,10.65,0,0,0,30,5.92a36.4,36.4,0,0,1-2.53,14.75A26.49,26.49,0,0,1,15.71,34.15,23.87,23.87,0,0,1,9.07,28.7,29.25,29.25,0,0,1,2.56,15.34a40.69,40.69,0,0,1-.85-9.4l.47.18A11.62,11.62,0,0,0,6,6.76,12.62,12.62,0,0,0,11.3,5.53a17.65,17.65,0,0,0,4.47-3.08M15.83,0l-.56.57A16.28,16.28,0,0,1,10.58,4,10.9,10.9,0,0,1,6,5.06a9.76,9.76,0,0,1-3.24-.55C1.84,4.2,1,3.75.12,3.35h0a.22.22,0,0,0,0,.06A44.45,44.45,0,0,0,.9,15.7,31.25,31.25,0,0,0,7.78,29.82a25.7,25.7,0,0,0,7.64,6.1.75.75,0,0,0,.3.08.66.66,0,0,0,.34-.1A28,28,0,0,0,29,21.3,39.06,39.06,0,0,0,31.59,4.45c0-.43-.08-.85-.12-1.27l-.11,0a2.2,2.2,0,0,0-.28.18,9.28,9.28,0,0,1-5.26,1.67,10.18,10.18,0,0,1-3.07-.49A16.69,16.69,0,0,1,16,.37a1.61,1.61,0,0,1-.2-.37Z"/><path class="cls-1" d="M15.71,8.63a22.37,22.37,0,0,0,5.51,2.43,26.3,26.3,0,0,0,3.12.52,30.66,30.66,0,0,1-.67,3.69l-.2.92a17.85,17.85,0,0,1-4,8.15,17.53,17.53,0,0,1-3.8,3.27,17.53,17.53,0,0,1-3.8-3.27,17.85,17.85,0,0,1-4-8.15l-.2-.92a31.63,31.63,0,0,1-.67-3.73,24.18,24.18,0,0,0,3.12-.48,22.37,22.37,0,0,0,5.51-2.43m0-2A24.07,24.07,0,0,1,9.82,9.4a23.74,23.74,0,0,1-4.55.54h0a.1.1,0,0,1,0,0,32.2,32.2,0,0,0,1,6.57,19.65,19.65,0,0,0,4.34,8.9,17.85,17.85,0,0,0,5.08,4.11,17.85,17.85,0,0,0,5.08-4.11,19.65,19.65,0,0,0,4.34-8.9,32.2,32.2,0,0,0,1-6.57.1.1,0,0,0,0,0h0A23.74,23.74,0,0,1,21.6,9.4a24.07,24.07,0,0,1-5.89-2.76Z"/></g></g></svg>