<svg version="1.1" id="Layer_1" xmlns="http://www.w3.org/2000/svg" xmlns:xlink="http://www.w3.org/1999/xlink" x="0px" y="0px"
	 viewBox="0 0 37.3 23.2" style="enable-background:new 0 0 37.3 23.2;" xml:space="preserve">
<g id="Layer_2_1_">
	<g id="Layer_1-2">
		<path d="M21.5,0H4.4C2,0,0,2,0,4.4v14.4c0,2.4,2,4.4,4.4,4.4h17c2.4,0,4.4-2,4.4-4.4V4.4C25.8,2,23.9,0,21.5,0z M24.2,18.8
			c0,1.5-1.2,2.7-2.7,2.7c0,0,0,0,0,0H4.4c-1.5,0-2.7-1.2-2.7-2.7c0,0,0,0,0,0V4.4c0-1.5,1.2-2.7,2.7-2.7h17c1.5,0,2.7,1.2,2.7,2.7
			c0,0,0,0,0,0L24.2,18.8z"/>
		<path d="M35.9,4.4C35,3.8,33.9,3.8,33,4.2l-5.3,2.5l-0.2,0.1v1.9l6.2-2.9c0.6-0.3,1.4,0,1.7,0.6c0.1,0.2,0.1,0.4,0.1,0.6v9.4
			c0,0.4-0.2,0.9-0.6,1.1c-0.4,0.2-0.8,0.3-1.2,0.1l-6.2-2.9v1.9L33,19c0.4,0.2,0.8,0.3,1.3,0.3c1.7,0,3-1.3,3-3V6.9
			C37.3,5.9,36.7,4.9,35.9,4.4z"/>
	</g>
</g>
</svg>
