<svg xmlns="http://www.w3.org/2000/svg" viewBox="0 0 29.05 34.23"><defs><style>.cls-1{fill:#5b5bba;}</style></defs><title>w_board</title><g id="Layer_2" data-name="Layer 2"><g id="Layer_1-2" data-name="Layer 1"><path class="cls-1" d="M25.42,26.42H3.63A3.63,3.63,0,0,1,0,22.79V7A3.63,3.63,0,0,1,3.63,3.32H25.42A3.62,3.62,0,0,1,29.05,7V22.79A3.62,3.62,0,0,1,25.42,26.42ZM4,24.73H25.05a2.31,2.31,0,0,0,2.31-2.31V7.32A2.3,2.3,0,0,0,25.05,5H4A2.3,2.3,0,0,0,1.7,7.32v15.1A2.31,2.31,0,0,0,4,24.73Z"/><polygon class="cls-1" points="3.04 33.57 4.6 34.23 7.22 28.12 5.38 28.12 3.04 33.57"/><polygon class="cls-1" points="24.45 34.23 26.01 33.57 23.68 28.12 21.83 28.12 24.45 34.23"/><rect class="cls-1" x="13.68" width="1.7" height="1.58"/></g></g></svg>