<?xml version="1.0" encoding="utf-8"?>
<!-- Generator: Adobe Illustrator 24.0.1, SVG Export Plug-In . SVG Version: 6.00 Build 0)  -->
<svg version="1.1" id="Layer_1" xmlns="http://www.w3.org/2000/svg" xmlns:xlink="http://www.w3.org/1999/xlink" x="0px" y="0px"
	 viewBox="0 0 32.8 27.5" style="enable-background:new 0 0 32.8 27.5;" xml:space="preserve">
<style type="text/css">
	.st0{fill:#009EF7;}
</style>
<title>Invite_1</title>
<g>
	<path class="st0" d="M12.8,13.6c3.8,0,6.8-3,6.8-6.8l0,0c0-3.8-3-6.8-6.8-6.8C9.1,0,6,3,6,6.8C6,10.5,9.1,13.6,12.8,13.6z
		 M12.8,1.5c2.9,0,5.3,2.4,5.3,5.3s-2.4,5.3-5.3,5.3S7.5,9.7,7.5,6.8S9.9,1.5,12.8,1.5z"/>
	<path class="st0" d="M25.5,13c-4,0-7.3,3.2-7.3,7.3c0,4,3.2,7.3,7.3,7.3c4,0,7.2-3.2,7.3-7.3C32.8,16.2,29.5,13,25.5,13z M25.5,26
		c-3.2,0-5.8-2.6-5.8-5.8s2.6-5.8,5.8-5.8s5.7,2.6,5.8,5.8C31.3,23.4,28.7,26,25.5,26z"/>
	<polygon class="st0" points="26.3,19.5 26.3,15.3 24.8,15.3 24.8,19.5 20.6,19.5 20.6,21 24.8,21 24.8,25.1 26.3,25.1 26.3,21 
		30.4,21 30.4,19.5 	"/>
	<path class="st0" d="M18.9,26H1.5c0.4-6.3,5.8-11,12.1-10.6c1.4,0.1,2.7,0.4,4,1c0.2-0.5,0.5-0.9,0.8-1.3c-6.4-3-14.1-0.3-17.1,6.1
		C0.4,23,0,24.8,0,26.8v0.8h20.6C20,27.1,19.4,26.6,18.9,26z"/>
</g>
</svg>
