<?xml version="1.0" encoding="utf-8"?>
<!-- Generator: Adobe Illustrator 24.0.1, SVG Export Plug-In . SVG Version: 6.00 Build 0)  -->
<svg version="1.1" id="Layer_1" xmlns="http://www.w3.org/2000/svg" xmlns:xlink="http://www.w3.org/1999/xlink" x="0px" y="0px"
	 viewBox="0 0 31.1 32.4" style="enable-background:new 0 0 31.1 32.4;" xml:space="preserve">
<style type="text/css">
	.st0{fill:#3F3F70;}
</style>
<title>Chat_2</title>
<path class="st0" d="M15.5,0C7,0,0,6.2,0,13.8c0.1,4.2,2.1,8.1,5.5,10.5c0.5,0.5,1.2,4,1.5,6.8l0.2,1.3l1-0.8c2.1-1.5,5.9-4,7.3-4
	c8.6,0,15.6-6.2,15.6-13.8S24.1,0,15.5,0z M10.7,13.4c0,1.2-0.9,2.1-2.1,2.1c0,0,0,0-0.1,0l0,0c-1.2,0-2.1-0.9-2.1-2.1
	s0.9-2.1,2.1-2.1C9.7,11.3,10.7,12.3,10.7,13.4L10.7,13.4z M17.7,13.4c0,1.2-0.9,2.1-2.1,2.1c0,0,0,0-0.1,0l0,0
	c-1.2,0-2.1-0.9-2.1-2.1s0.9-2.1,2.1-2.1C16.8,11.3,17.7,12.3,17.7,13.4L17.7,13.4z M24.8,13.4c0,1.2-0.9,2.1-2.1,2.1h-0.1h0.1
	c-1.2,0-2.1-0.9-2.1-2.1s0.9-2.1,2.1-2.1C23.8,11.3,24.8,12.3,24.8,13.4L24.8,13.4z"/>
</svg>
