<?xml version="1.0" encoding="utf-8"?>
<!-- Generator: Adobe Illustrator 24.0.1, SVG Export Plug-In . SVG Version: 6.00 Build 0)  -->
<svg version="1.1" id="Layer_1" xmlns="http://www.w3.org/2000/svg" xmlns:xlink="http://www.w3.org/1999/xlink" x="0px" y="0px"
	 viewBox="0 0 36.2 25.5" style="enable-background:new 0 0 36.2 25.5;" xml:space="preserve">
<style type="text/css">
	.st0{fill:#3F3F70;}
</style>
<title>Manage Participants_1</title>
<g>
	<path class="st0" d="M13.4,12.4c2.8-0.6,4.9-3.1,4.9-6.1l0,0C18.3,2.8,15.5,0,12,0C8.6,0,5.8,2.8,5.8,6.3c0,3,2.1,5.5,4.9,6.1
		C4.5,13.1-0.2,18.4,0,24.8v0.8h24.2v-0.8c0-0.2,0-0.5,0-0.7C24,18,19.3,13.1,13.4,12.4z M7.3,6.3c0-2.6,2.2-4.8,4.8-4.8
		s4.8,2.2,4.8,4.8l0,0c0,2.6-2.2,4.8-4.8,4.8C9.4,11.1,7.3,8.9,7.3,6.3z M1.5,24c0.4-5.2,4.5-9.4,9.8-9.8c5.8-0.4,10.9,3.9,11.3,9.8
		H1.5z"/>
	<path class="st0" d="M25.2,12.7c3.2,0,5.9-2.6,5.9-5.8S28.5,1,25.2,1c-3.2,0-5.9,2.6-5.9,5.8l0,0C19.4,10.1,22,12.7,25.2,12.7z
		 M20.9,6.9c0-2.4,1.9-4.4,4.4-4.4c2.4,0,4.4,1.9,4.4,4.3s-1.9,4.4-4.4,4.4C22.8,11.2,20.9,9.3,20.9,6.9L20.9,6.9z"/>
	<path class="st0" d="M25.1,12.8c-1.7,0-3.3,0.4-4.8,1.2c0.4,0.3,0.9,0.6,1.3,1c4.8-2,10.3,0.2,12.4,5c0.4,1,0.7,2,0.7,3h-9.1
		c0.1,0.5,0.1,1,0.1,1.5h10.5v-0.8C36.1,17.6,31.1,12.8,25.1,12.8z"/>
</g>
</svg>
