<svg xmlns="http://www.w3.org/2000/svg"><symbol id="sprite-7d54ab515d1272edf4e2" viewBox="0 0 18 18"><defs><style>.cls-1{fill:#ff2260}</style></defs><title>Grid_view</title><g id="Layer_2" data-name="Layer 2"><path class="cls-1" d="M0 0h4v4H0zm7 0h4v4H7zm7 0h4v4h-4zM0 7h4v4H0zm7 0h4v4H7zm7 0h4v4h-4zM0 14h4v4H0zm7 0h4v4H7zm7 0h4v4h-4z" id="Layer_1-2" data-name="Layer 1"/></g></symbol><symbol id="sprite-b98c4dae3a05a486265d" viewBox="0 0 18 19"><title>Speaker view</title><g id="Layer_2" data-name="Layer 2"><path class="cls-1" d="M0 0h4v4H0zm7 0h4v4H7zm7 0h4v4h-4zM0 19h18V6H0ZM2 8h14v9H2Z" id="Layer_1-2" data-name="Layer 1"/></g></symbol><symbol id="sprite-audio" viewBox="0 0 20.32 31.5"><title>Audio_2</title><g id="Layer_2" data-name="Layer 2"><g id="Layer_1-2" data-name="Layer 1"><path class="cls-1" d="M9.41 25.19h1.5v5.56h-1.5z"/><path class="cls-1" d="M7.38 30h5.56v1.5H7.38z"/><path class="cls-1" transform="rotate(-41.84 10.16 12.249)" d="M-2.81 11.5h25.93V13H-2.81z"/><path class="cls-1" d="M5.45 20.19a4.25 4.25 0 0 0 4.25 4.25h1.11a4.25 4.25 0 0 0 4.25-4.25v-9.32l-9.61 8.61Zm9.61-14.44a4.26 4.26 0 0 0-4.25-4.25H9.7a4.25 4.25 0 0 0-4.25 4.25v11.71l9.61-8.6Z"/><path class="cls-1" d="M5.45 5.75A4.25 4.25 0 0 1 9.7 1.5h1.11a4.26 4.26 0 0 1 4.25 4.25v3.11l1.5-1.35V5.75A5.76 5.76 0 0 0 10.81 0H9.7A5.75 5.75 0 0 0 4 5.75v13.06l1.5-1.35Zm9.61 5.12v9.32a4.25 4.25 0 0 1-4.25 4.25H9.7a4.25 4.25 0 0 1-4.25-4.25v-.71L4 20.79a5.76 5.76 0 0 0 5.7 5.15h1.11a5.75 5.75 0 0 0 5.75-5.75V9.53Z"/></g></g></symbol><symbol id="sprite-grid_view" viewBox="0 0 18 18"><title>Grid_view</title><g id="Layer_2" data-name="Layer 2"><path class="cls-1" d="M0 0h4v4H0zm7 0h4v4H7zm7 0h4v4h-4zM0 7h4v4H0zm7 0h4v4H7zm7 0h4v4h-4zM0 14h4v4H0zm7 0h4v4H7zm7 0h4v4h-4z" id="Layer_1-2" data-name="Layer 1"/></g></symbol><symbol id="sprite-speakerview" viewBox="0 0 18 19"><title>Speaker view</title><g id="Layer_2" data-name="Layer 2"><path class="cls-1" d="M0 0h4v4H0zm7 0h4v4H7zm7 0h4v4h-4zM0 19h18V6H0ZM2 8h14v9H2Z" id="Layer_1-2" data-name="Layer 1"/></g></symbol><symbol id="sprite-adduser" viewBox="0 0 32.75 27.5"><title>Invite_2</title><g id="Layer_2" data-name="Layer 2"><g id="Layer_1-2" data-name="Layer 1"><path class="cls-1" d="M12.84 13.59A6.8 6.8 0 1 0 6.05 6.8a6.8 6.8 0 0 0 6.79 6.79ZM25.5 13a7.25 7.25 0 1 0 7.25 7.25A7.26 7.26 0 0 0 25.5 13Zm4.87 8h-4.12v4.12h-1.5V21h-4.13v-1.5h4.13v-4.16h1.5v4.13h4.12Z"/><path class="cls-1" d="M18.93 26a8.66 8.66 0 0 1-1.33-9.55 8 8 0 0 1 .76-1.3A12.85 12.85 0 0 0 0 26.75v.75h20.62a8.61 8.61 0 0 1-1.69-1.5Z"/></g></g></symbol><symbol id="sprite-Chat_2" viewBox="0 0 31.11 32.42"><title>Chat_2</title><g data-name="Layer 2"><path d="M15.55 0C7 0 0 6.21 0 13.84a13.27 13.27 0 0 0 5.45 10.53c.52.46 1.25 3.88 1.6 6.78l.16 1.27 1-.75c2.11-1.55 5.95-4 7.31-4 8.58 0 15.56-6.21 15.56-13.84S24.13 0 15.55 0Zm-7 15.55a2.12 2.12 0 1 1 2.12-2.11 2.11 2.11 0 0 1-2.17 2.11Zm7.05 0a2.12 2.12 0 1 1 2.12-2.11 2.11 2.11 0 0 1-2.17 2.11Zm7.05 0a2.12 2.12 0 1 1 2.12-2.11 2.1 2.1 0 0 1-2.17 2.11Z" style="fill:#ff2260" data-name="Layer 1"/></g></symbol><symbol id="sprite-chat" viewBox="0 0 31.11 32.42"><title>Chat_1</title><g id="Layer_2" data-name="Layer 2"><g id="Layer_1-2" data-name="Layer 1"><path class="cls-1" d="m7.21 32.42-.16-1.27c-.35-2.9-1.08-6.32-1.6-6.78A13.27 13.27 0 0 1 0 13.84C0 6.21 7 0 15.55 0s15.56 6.21 15.56 13.84-7 13.84-15.56 13.84c-1.36 0-5.2 2.44-7.31 4ZM15.55 1.5C7.8 1.5 1.5 7 1.5 13.84a11.73 11.73 0 0 0 4.87 9.33c1 .78 1.67 4.24 2 6.56 1.8-1.24 5.39-3.55 7.17-3.55 7.75 0 14.06-5.54 14.06-12.34S23.3 1.5 15.55 1.5Z"/><circle class="cls-1" cx="8.5" cy="13.44" r="2.11"/><circle class="cls-1" cx="15.55" cy="13.44" r="2.11"/><circle class="cls-1" cx="22.6" cy="13.44" r="2.11"/></g></g></symbol><symbol id="sprite-Invite_1" viewBox="0 0 32.75 27.5"><title>Invite_1</title><g id="Layer_2" data-name="Layer 2"><g id="Layer_1-2" data-name="Layer 1"><path class="cls-1" d="M12.84 13.59a6.8 6.8 0 1 1 6.8-6.79 6.8 6.8 0 0 1-6.8 6.79Zm0-12.09a5.3 5.3 0 1 0 5.3 5.3 5.3 5.3 0 0 0-5.3-5.3ZM25.5 27.47a7.25 7.25 0 1 1 7.25-7.25 7.26 7.26 0 0 1-7.25 7.25Zm0-13a5.75 5.75 0 1 0 5.75 5.75 5.76 5.76 0 0 0-5.75-5.75Z"/><path class="cls-1" d="M20.62 19.47h9.75v1.5h-9.75z"/><path class="cls-1" d="M24.75 15.34h1.5v9.75h-1.5zM18.93 26H1.52a11.36 11.36 0 0 1 16.08-9.55 8 8 0 0 1 .76-1.3A12.85 12.85 0 0 0 0 26.75v.75h20.62a8.61 8.61 0 0 1-1.69-1.5Zm5.66 0h.34v.11h-.34z"/></g></g></symbol><symbol id="sprite-ManageParticipants_1" viewBox="0 0 36.18 25.5"><title>Manage Participants_1</title><g id="Layer_2" data-name="Layer 2"><g id="Layer_1-2" data-name="Layer 1"><path class="cls-1" d="M12.08 12.57a6.29 6.29 0 1 1 6.28-6.28 6.29 6.29 0 0 1-6.28 6.28Zm0-11.07a4.79 4.79 0 1 0 4.78 4.79 4.8 4.8 0 0 0-4.78-4.79Z"/><path class="cls-1" d="M24.15 25.5H0v-.75a12.08 12.08 0 1 1 24.15 0ZM1.53 24h21.1a10.58 10.58 0 0 0-21.1 0Zm23.68-11.27a5.86 5.86 0 1 0-5.85-5.86 5.87 5.87 0 0 0 5.85 5.86Zm0-10.22a4.36 4.36 0 1 1-4.35 4.36 4.36 4.36 0 0 1 4.35-4.36Z"/><path class="cls-1" d="M36.18 23.72A11 11 0 0 0 20.26 14a13.06 13.06 0 0 1 1.27 1 9.44 9.44 0 0 1 13.12 8h-9.13a12.3 12.3 0 0 1 .12 1.5h10.54Z"/></g></g></symbol><symbol id="sprite-perticipant" viewBox="0 0 36.18 25.5"><title>Manage Participants_2</title><g id="Layer_2" data-name="Layer 2"><g id="Layer_1-2" data-name="Layer 1"><path class="cls-1" d="M12.08 12.57a6.29 6.29 0 1 0-6.29-6.28 6.29 6.29 0 0 0 6.29 6.28Zm0 .1A12.09 12.09 0 0 0 0 24.75v.75h24.16v-.75a12.09 12.09 0 0 0-12.08-12.08Zm13.13.06a5.86 5.86 0 1 0-5.85-5.86 5.87 5.87 0 0 0 5.85 5.86Z"/><path class="cls-1" d="M25.21 12.76A10.81 10.81 0 0 0 20.27 14a14.24 14.24 0 0 1 1.26 1 13.48 13.48 0 0 1 4 8 12.3 12.3 0 0 1 .12 1.5h10.53v-.75a11 11 0 0 0-10.97-10.99Z"/></g></g></symbol><symbol id="sprite-poll" viewBox="0 0 26.54 25.5"><title>Polls_2</title><g id="Layer_2" data-name="Layer 2"><path class="cls-1" d="M0 10.96h7.76V25.5H0zM9.39 0h7.76v25.5H9.39zm9.39 3.65h7.76V25.5h-7.76z" id="Layer_1-2" data-name="Layer 1"/></g></symbol><symbol id="sprite-Polls_1" viewBox="0 0 26.54 25.5"><title>Polls_1</title><g id="Layer_2" data-name="Layer 2"><path class="cls-1" d="M7.76 25.5H0V11h7.76ZM1.5 24h4.76V12.46H1.5Zm15.65 1.5H9.39V0h7.76ZM10.89 24h4.76V1.5h-4.76Zm15.65 1.5h-7.76V3.65h7.76ZM20.28 24H25V5.15h-4.72Z" id="Layer_1-2" data-name="Layer 1"/></g></symbol><symbol id="sprite-Record_2" viewBox="0 0 31.5 31.5"><title>Record_2</title><g data-name="Layer 2"><path d="M15.75 0A15.75 15.75 0 1 0 31.5 15.75 15.77 15.77 0 0 0 15.75 0Zm0 21.75a6 6 0 1 1 6-6 6 6 0 0 1-6 6Z" style="fill:#ff2260" data-name="Layer 1"/></g></symbol><symbol id="sprite-record" viewBox="0 0 31.5 31.5"><title>Record_1</title><g id="Layer_2" data-name="Layer 2"><g id="Layer_1-2" data-name="Layer 1"><path class="cls-1" d="M15.75 31.5A15.75 15.75 0 1 1 31.5 15.75 15.77 15.77 0 0 1 15.75 31.5Zm0-30A14.25 14.25 0 1 0 30 15.75 14.26 14.26 0 0 0 15.75 1.5Z"/><circle class="cls-1" cx="15.75" cy="15.75" r="6"/></g></g></symbol><symbol id="sprite-ShareScreen_1" viewBox="0 0 18 20.81"><title>ShareScreen_1</title><g id="Layer_2" data-name="Layer 2"><g id="Layer_1-2" data-name="Layer 1"><path class="cls-1" d="M0 19.31h18v1.5H0zM8.25 1.06h1.5v17h-1.5z"/><path class="cls-1" d="M14.47 7.59 9 2.12 3.53 7.59 2.47 6.53 9 0l6.53 6.53-1.06 1.06z"/></g></g></symbol><symbol id="sprite-ShareScreen_2" viewBox="0 0 27.39 27.39"><title>ShareScreen_2</title><g data-name="Layer 2"><path d="M23.28 0H4.11A4.11 4.11 0 0 0 0 4.11v19.17a4.11 4.11 0 0 0 4.11 4.11h19.17a4.11 4.11 0 0 0 4.11-4.11V4.11A4.11 4.11 0 0 0 23.28 0ZM13.7 3.29l6.53 6.53-1.06 1.06-4.72-4.72v15.19H13V6.16l-4.77 4.72-1.06-1.06Zm9 20.81h-18v-1.5h18Z" style="fill:#ff2260" data-name="Layer 1"/></g></symbol><symbol id="sprite-Video_1" viewBox="0 0 32.97 20.5"><title>Video_1</title><g id="Layer_2" data-name="Layer 2"><path class="cls-1" d="M19 0H3.9A3.91 3.91 0 0 0 0 3.9v12.7a3.91 3.91 0 0 0 3.9 3.9H19a3.91 3.91 0 0 0 3.9-3.9V3.9A3.91 3.91 0 0 0 19 0Zm2.4 16.6A2.41 2.41 0 0 1 19 19H3.9a2.41 2.41 0 0 1-2.4-2.4V3.9a2.41 2.41 0 0 1 2.4-2.4H19a2.41 2.41 0 0 1 2.4 2.4ZM31.74 3.87a2.65 2.65 0 0 0-2.53-.16l-4.69 2.21-.14.08v1.64l5.46-2.57a1.14 1.14 0 0 1 1.1.07 1.11 1.11 0 0 1 .53 1v8.3a1.1 1.1 0 0 1-.53 1 1.14 1.14 0 0 1-1.1.07l-5.46-2.57v1.65l4.83 2.28a2.61 2.61 0 0 0 1.12.25A2.64 2.64 0 0 0 33 14.4V6.1a2.63 2.63 0 0 0-1.26-2.23Z" id="Layer_1-2" data-name="Layer 1"/></g></symbol><symbol id="sprite-video" viewBox="0 0 32.97 20.5"><title>Video_2</title><g id="Layer_2" data-name="Layer 2"><g id="Layer_1-2" data-name="Layer 1"><rect class="cls-1" width="22.88" height="20.5" rx="3.9"/><path class="cls-1" d="M31.74 3.87a2.65 2.65 0 0 0-2.53-.16l-4.69 2.21-.14.08v8.52l4.83 2.28a2.61 2.61 0 0 0 1.12.25A2.64 2.64 0 0 0 33 14.4V6.1a2.63 2.63 0 0 0-1.26-2.23Z"/></g></g></symbol><symbol id="sprite-Whiteboard_1" viewBox="0 0 25.71 30.3"><title>Whiteboard_1</title><g id="Layer_2" data-name="Layer 2"><path class="cls-1" d="M22.5 23.38H3.21A3.21 3.21 0 0 1 0 20.17v-14a3.22 3.22 0 0 1 3.21-3.24H22.5a3.22 3.22 0 0 1 3.21 3.22v14a3.21 3.21 0 0 1-3.21 3.23Zm-19-1.5h18.67a2 2 0 0 0 2-2V6.48a2 2 0 0 0-2-2.05H3.54a2 2 0 0 0-2 2.05v13.36a2 2 0 0 0 2 2.04Zm-.81 7.82 1.38.6 2.32-5.42H4.76L2.69 29.7zm18.95.6 1.38-.6-2.07-4.82h-1.63l2.32 5.42zM12.11 0h1.5v1.4h-1.5z" id="Layer_1-2" data-name="Layer 1"/></g></symbol><symbol id="sprite-Whiteboard_2" viewBox="0 0 25.71 30.3"><title>Whiteboard_2</title><g id="Layer_2" data-name="Layer 2"><g id="Layer_1-2" data-name="Layer 1"><path class="cls-1" d="M22.5 23.38H3.21A3.21 3.21 0 0 1 0 20.17v-14a3.22 3.22 0 0 1 3.21-3.24H22.5a3.22 3.22 0 0 1 3.21 3.22v14a3.21 3.21 0 0 1-3.21 3.23Zm-19-1.5h18.67a2 2 0 0 0 2-2V6.48a2 2 0 0 0-2-2.05H3.54a2 2 0 0 0-2 2.05v13.36a2 2 0 0 0 2 2.04Z"/><path d="m7.23 22.93-.2.45h11.65l-.2-.45 1.38-.59.45 1h1.86a2 2 0 0 0 2-2V8a2 2 0 0 0-2-2.05H3.54A2 2 0 0 0 1.5 8v13.34a2 2 0 0 0 2 2h1.9l.45-1Z" style="fill:none"/><path class="cls-1" d="m7.23 22.93-1.38-.59-.45 1.04h1.63l.2-.45zM2.69 29.7l1.38.6 2.32-5.42H4.76L2.69 29.7zm18.95.6 1.38-.6-2.07-4.82h-1.63l2.32 5.42zm-3.16-7.37.2.45h1.63l-.45-1.04-1.38.59zM12.11 0h1.5v1.4h-1.5zM.94 4h23.91v18.34H.94z"/></g></g></symbol></svg>