<svg xmlns="http://www.w3.org/2000/svg" xmlns:xlink="http://www.w3.org/1999/xlink"><symbol style="enable-background:new 0 0 26.5 25.5" id="sprite-881bbaedc8bb32d0d61b" viewBox="0 0 26.5 25.5"><style>.cls-3{fill:url(#linear-gradient-2)}.cls-1,.st0{fill:#ff2260}</style><title>Polls_1</title><path class="st0" d="M0 25.5h7.8V11H0v14.5zm1.5-13h4.8V24H1.5V12.5zm7.9 13h7.8V0H9.4v25.5zm1.5-24h4.8V24h-4.8V1.5zm7.9 2.1v21.9h7.8V3.6h-7.8zM25 24h-4.7V5.1H25V24z"/></symbol><symbol style="enable-background:new 0 0 20.3 31.5" id="sprite-8e8cc250b4cc9158c598" viewBox="0 0 20.3 31.5"><title>Audio_1</title><path class="st0" d="m4 18.8 1.5-1.4L20.3 4.2l-1-1.1-2.8 2.5C16.4 2.5 13.9 0 10.8 0H9.7C6.5 0 4 2.6 4 5.8v11l-4 3.6 1 1.1 3-2.7zm1.5-13c0-2.3 1.9-4.3 4.3-4.3h1.1c2.3 0 4.2 1.9 4.3 4.3v1.1l-9.6 8.6-.1-9.7zm9.6 14.4c0 2.3-1.9 4.3-4.3 4.3H9.7c-2.3 0-4.3-1.9-4.3-4.3v-.7L4 20.8c.3 2.8 2.6 5 5.4 5.1V30h-2v1.5H13V30h-2v-4.1c3.1-.1 5.7-2.6 5.7-5.7V9.5l-1.5 1.3v9.4z"/></symbol><symbol style="enable-background:new 0 0 31.1 32.4" id="sprite-ae4b4c06e4d42d8fc5b6" viewBox="0 0 31.1 32.4"><title>Chat_1</title><path class="st0" d="M15.5 0C7 0 0 6.2 0 13.8c.1 4.2 2.1 8.1 5.5 10.5.5.5 1.2 3.9 1.5 6.8l.2 1.3 1-.7c2.1-1.6 6-4 7.3-4 8.6 0 15.6-6.2 15.6-13.8S24.1 0 15.5 0zm0 26.2c-1.8 0-5.4 2.3-7.2 3.5-.3-2.3-1-5.8-2-6.6-3-2.2-4.8-5.6-4.9-9.3 0-6.8 6.3-12.3 14-12.3s14 5.5 14 12.3-6.1 12.4-13.9 12.4z"/><path class="st0" d="M8.5 11.3c-1.2 0-2.1.9-2.1 2.1 0 1.2.9 2.1 2.1 2.1s2.1-.9 2.1-2.1c0-1.1-.9-2.1-2.1-2.1zm7 0c-1.2 0-2.1.9-2.1 2.1 0 1.2.9 2.1 2.1 2.1 1.2 0 2.1-.9 2.1-2.1.1-1.1-.9-2.1-2.1-2.1zm7.1 0c-1.2 0-2.1.9-2.1 2.1 0 1.2.9 2.1 2.1 2.1 1.2 0 2.1-.9 2.1-2.1 0-1.1-.9-2.1-2.1-2.1z"/></symbol><symbol style="enable-background:new 0 0 18 19" id="sprite-bc5a9c14e8989cb65664" viewBox="0 0 18 19"><title>bc5a9c14e8989cb65664</title><g id="Layer_2_1_"><path class="st0" d="M0 0h4v4H0zm7 0h4v4H7zm7 0h4v4h-4zM0 19h18V6H0v13zM2 8h14v9H2V8z" id="Layer_1-2"/></g></symbol><symbol style="enable-background:new 0 0 31.5 31.5" id="sprite-c9f8d4b3a6cdb64c70d7" viewBox="0 0 31.5 31.5"><title>Record_1</title><path class="st0" d="M15.8 0C7.1 0 0 7.1 0 15.8s7.1 15.8 15.8 15.8c8.7 0 15.7-7.1 15.8-15.8C31.5 7.1 24.4 0 15.8 0zm0 30C7.9 30 1.5 23.6 1.5 15.8S7.9 1.5 15.8 1.5C23.6 1.5 30 7.9 30 15.8 30 23.6 23.6 30 15.8 30z"/><circle class="st0" cx="15.8" cy="15.8" r="6"/></symbol><symbol style="enable-background:new 0 0 32.8 27.5" id="sprite-e05226bf54836289cae7" viewBox="0 0 32.8 27.5"><title>Invite_1</title><path class="st0" d="M12.8 13.6c3.8 0 6.8-3 6.8-6.8S16.6 0 12.8 0C9.1 0 6 3 6 6.8c0 3.7 3.1 6.8 6.8 6.8zm0-12.1c2.9 0 5.3 2.4 5.3 5.3s-2.4 5.3-5.3 5.3-5.3-2.4-5.3-5.3 2.4-5.3 5.3-5.3zM25.5 13c-4 0-7.3 3.2-7.3 7.3 0 4 3.2 7.3 7.3 7.3 4 0 7.2-3.2 7.3-7.3 0-4.1-3.3-7.3-7.3-7.3zm0 13c-3.2 0-5.8-2.6-5.8-5.8 0-3.2 2.6-5.8 5.8-5.8 3.2 0 5.7 2.6 5.8 5.8 0 3.2-2.6 5.8-5.8 5.8z"/><path class="st0" d="M26.3 19.5v-4.2h-1.5v4.2h-4.2V21h4.2v4.1h1.5V21h4.1v-1.5zM18.9 26H1.5c.4-6.3 5.8-11 12.1-10.6 1.4.1 2.7.4 4 1 .2-.5.5-.9.8-1.3-6.4-3-14.1-.3-17.1 6.1C.4 23 0 24.8 0 26.8v.8h20.6c-.6-.5-1.2-1-1.7-1.6z"/></symbol><symbol style="enable-background:new 0 0 33 20.5" id="sprite-f5699d129ba2bd26d7b6" viewBox="0 0 33 20.5"><title>Video_1</title><path class="st0" d="M19 0H3.9C1.7 0 0 1.7 0 3.9v12.7c0 2.2 1.7 3.9 3.9 3.9H19c2.2 0 3.9-1.7 3.9-3.9V3.9C22.9 1.7 21.2 0 19 0zm2.4 16.6c0 1.3-1.1 2.4-2.4 2.4H3.9c-1.3 0-2.4-1.1-2.4-2.4V3.9c0-1.3 1.1-2.4 2.4-2.4H19c1.3 0 2.4 1.1 2.4 2.4v12.7zM33 14.4V6.1c0-.9-.5-1.8-1.3-2.2-.7-.5-1.7-.6-2.5-.2l-4.7 2.2-.1.1v1.6L29.9 5c.4-.2.8-.1 1.1.1.3.2.5.6.5 1v8.3c0 .4-.2.8-.5 1-.3.2-.7.2-1.1.1l-5.5-2.6v1.6l4.8 2.3c.4.2.7.3 1.1.3 1.5 0 2.7-1.2 2.7-2.6v-.1z"/></symbol><symbol id="sprite-audio" viewBox="0 0 20.32 31.5"><title>Audio_2</title><g id="Layer_2" data-name="Layer 2"><g id="Layer_1-2" data-name="Layer 1"><path class="cls-1" d="M9.41 25.19h1.5v5.56h-1.5z"/><path class="cls-1" d="M7.38 30h5.56v1.5H7.38z"/><path class="cls-1" transform="rotate(-41.84 10.16 12.249)" d="M-2.81 11.5h25.93V13H-2.81z"/><path class="cls-1" d="M5.45 20.19a4.25 4.25 0 0 0 4.25 4.25h1.11a4.25 4.25 0 0 0 4.25-4.25v-9.32l-9.61 8.61Zm9.61-14.44a4.26 4.26 0 0 0-4.25-4.25H9.7a4.25 4.25 0 0 0-4.25 4.25v11.71l9.61-8.6Z"/><path class="cls-1" d="M5.45 5.75A4.25 4.25 0 0 1 9.7 1.5h1.11a4.26 4.26 0 0 1 4.25 4.25v3.11l1.5-1.35V5.75A5.76 5.76 0 0 0 10.81 0H9.7A5.75 5.75 0 0 0 4 5.75v13.06l1.5-1.35Zm9.61 5.12v9.32a4.25 4.25 0 0 1-4.25 4.25H9.7a4.25 4.25 0 0 1-4.25-4.25v-.71L4 20.79a5.76 5.76 0 0 0 5.7 5.15h1.11a5.75 5.75 0 0 0 5.75-5.75V9.53Z"/></g></g></symbol><symbol style="enable-background:new 0 0 20.3 31.5" id="sprite-audio1" viewBox="0 0 20.3 31.5"><title>Audio_1</title><path class="st0" d="m4 18.8 1.5-1.4L20.3 4.2l-1-1.1-2.8 2.5C16.4 2.5 13.9 0 10.8 0H9.7C6.5 0 4 2.6 4 5.8v11l-4 3.6 1 1.1 3-2.7zm1.5-13c0-2.3 1.9-4.3 4.3-4.3h1.1c2.3 0 4.2 1.9 4.3 4.3v1.1l-9.6 8.6-.1-9.7zm9.6 14.4c0 2.3-1.9 4.3-4.3 4.3H9.7c-2.3 0-4.3-1.9-4.3-4.3v-.7L4 20.8c.3 2.8 2.6 5 5.4 5.1V30h-2v1.5H13V30h-2v-4.1c3.1-.1 5.7-2.6 5.7-5.7V9.5l-1.5 1.3v9.4z"/></symbol><symbol style="enable-background:new 0 0 20.3 31.5" id="sprite-audio2" viewBox="0 0 20.3 31.5"><title>Audio_2</title><path class="st0" d="M5.5 19.5 4 20.8c.3 2.8 2.6 5 5.4 5.1V30h-2v1.5H13V30h-2v-4.1c3.1-.1 5.7-2.6 5.7-5.7V9.5l-1.5 1.3-9.7 8.7zM4 18.8l1.5-1.4L20.3 4.2l-1-1.1-2.8 2.5C16.4 2.5 13.9 0 10.8 0H9.7C6.5 0 4 2.6 4 5.8v11l-4 3.6 1 1.1 3-2.7z"/></symbol><symbol style="enable-background:new 0 0 31.1 32.4" id="sprite-chat1" viewBox="0 0 31.1 32.4"><title>Chat_1</title><path class="st0" d="M15.5 0C7 0 0 6.2 0 13.8c.1 4.2 2.1 8.1 5.5 10.5.5.5 1.2 3.9 1.5 6.8l.2 1.3 1-.7c2.1-1.6 6-4 7.3-4 8.6 0 15.6-6.2 15.6-13.8S24.1 0 15.5 0zm0 26.2c-1.8 0-5.4 2.3-7.2 3.5-.3-2.3-1-5.8-2-6.6-3-2.2-4.8-5.6-4.9-9.3 0-6.8 6.3-12.3 14-12.3s14 5.5 14 12.3-6.1 12.4-13.9 12.4z"/><path class="st0" d="M8.5 11.3c-1.2 0-2.1.9-2.1 2.1 0 1.2.9 2.1 2.1 2.1s2.1-.9 2.1-2.1c0-1.1-.9-2.1-2.1-2.1zm7 0c-1.2 0-2.1.9-2.1 2.1 0 1.2.9 2.1 2.1 2.1 1.2 0 2.1-.9 2.1-2.1.1-1.1-.9-2.1-2.1-2.1zm7.1 0c-1.2 0-2.1.9-2.1 2.1 0 1.2.9 2.1 2.1 2.1 1.2 0 2.1-.9 2.1-2.1 0-1.1-.9-2.1-2.1-2.1z"/></symbol><symbol style="enable-background:new 0 0 31.1 32.4" id="sprite-chat2" viewBox="0 0 31.1 32.4"><title>Chat_2</title><path d="M15.5 0C7 0 0 6.2 0 13.8c.1 4.2 2.1 8.1 5.5 10.5.5.5 1.2 4 1.5 6.8l.2 1.3 1-.8c2.1-1.5 5.9-4 7.3-4 8.6 0 15.6-6.2 15.6-13.8S24.1 0 15.5 0zm-4.8 13.4c0 1.2-.9 2.1-2.1 2.1h-.1c-1.2 0-2.1-.9-2.1-2.1 0-1.2.9-2.1 2.1-2.1 1.2 0 2.2 1 2.2 2.1zm7 0c0 1.2-.9 2.1-2.1 2.1h-.1c-1.2 0-2.1-.9-2.1-2.1s.9-2.1 2.1-2.1c1.3 0 2.2 1 2.2 2.1zm7.1 0c0 1.2-.9 2.1-2.1 2.1h-.1.1c-1.2 0-2.1-.9-2.1-2.1s.9-2.1 2.1-2.1c1.1 0 2.1 1 2.1 2.1z" style="fill:#ff2260"/></symbol><symbol id="sprite-grid_view" viewBox="0 0 18 18"><title>Grid_view</title><g id="Layer_2" data-name="Layer 2"><path class="cls-1" d="M0 0h4v4H0zm7 0h4v4H7zm7 0h4v4h-4zM0 7h4v4H0zm7 0h4v4H7zm7 0h4v4h-4zM0 14h4v4H0zm7 0h4v4H7zm7 0h4v4h-4z" id="Layer_1-2" data-name="Layer 1"/></g></symbol><symbol style="enable-background:new 0 0 32.8 27.5" id="sprite-invite1" viewBox="0 0 32.8 27.5"><title>Invite_1</title><path class="st0" d="M12.8 13.6c3.8 0 6.8-3 6.8-6.8S16.6 0 12.8 0C9.1 0 6 3 6 6.8c0 3.7 3.1 6.8 6.8 6.8zm0-12.1c2.9 0 5.3 2.4 5.3 5.3s-2.4 5.3-5.3 5.3-5.3-2.4-5.3-5.3 2.4-5.3 5.3-5.3zM25.5 13c-4 0-7.3 3.2-7.3 7.3 0 4 3.2 7.3 7.3 7.3 4 0 7.2-3.2 7.3-7.3 0-4.1-3.3-7.3-7.3-7.3zm0 13c-3.2 0-5.8-2.6-5.8-5.8 0-3.2 2.6-5.8 5.8-5.8 3.2 0 5.7 2.6 5.8 5.8 0 3.2-2.6 5.8-5.8 5.8z"/><path class="st0" d="M26.3 19.5v-4.2h-1.5v4.2h-4.2V21h4.2v4.1h1.5V21h4.1v-1.5zM18.9 26H1.5c.4-6.3 5.8-11 12.1-10.6 1.4.1 2.7.4 4 1 .2-.5.5-.9.8-1.3-6.4-3-14.1-.3-17.1 6.1C.4 23 0 24.8 0 26.8v.8h20.6c-.6-.5-1.2-1-1.7-1.6z"/></symbol><symbol style="enable-background:new 0 0 32.8 27.5" id="sprite-invite2" viewBox="0 0 32.8 27.5"><title>Invite_2</title><path class="st0" d="M12.8 13.6c3.8 0 6.8-3 6.8-6.8S16.6 0 12.8 0C9.1 0 6.1 3 6 6.8c.1 3.7 3.1 6.8 6.8 6.8zm12.7-.6c-4 0-7.3 3.2-7.3 7.3 0 4 3.2 7.3 7.3 7.3s7.3-3.2 7.3-7.3c-.1-4.1-3.3-7.3-7.3-7.3zm4.9 8h-4.1v4.1h-1.5V21h-4.1v-1.5h4.1v-4.2h1.5v4.1h4.1V21z"/><path class="st0" d="M18.9 26c-2.3-2.6-2.9-6.4-1.3-9.5.2-.5.5-.9.8-1.3-6.4-3-14.1-.3-17.1 6.1C.4 23 0 24.8 0 26.8v.8h20.6c-.6-.5-1.2-1-1.7-1.6z"/></symbol><symbol style="enable-background:new 0 0 115.8 90.9" id="sprite-logo_icon" viewBox="0 0 115.8 90.9"><title>logo_icon</title><linearGradient id="a" gradientUnits="userSpaceOnUse" x1="2.88" y1="54.041" x2="115.829" y2="59.681" gradientTransform="matrix(1 0 0 -1 0 98)"><stop offset="0" style="stop-color:#ff736b"/><stop offset="1" style="stop-color:#ff2260"/></linearGradient><path d="M20.5 31.8 5.6 20.4c-1.5-1.2-3.7-.9-4.9.7-.5.6-.7 1.3-.7 2.1v41.5c0 1.9 1.6 3.5 3.5 3.4.7 0 1.5-.3 2.1-.7l14.3-10.9c-1.9-8.1-1.6-16.7.6-24.7z" style="fill:url(#a)"/><linearGradient id="b" gradientUnits="userSpaceOnUse" x1="33.368" y1="81.509" x2="84.188" y2="5.979" gradientTransform="matrix(1 0 0 -1 0 98)"><stop offset="0" style="stop-color:#ff736b"/><stop offset="1" style="stop-color:#ff2260"/></linearGradient><circle cx="52.9" cy="45.5" r="3.8" style="fill:url(#b)"/><linearGradient id="c" gradientUnits="userSpaceOnUse" x1="45.402" y1="89.612" x2="96.232" y2="14.082" gradientTransform="matrix(1 0 0 -1 0 98)"><stop offset="0" style="stop-color:#ff736b"/><stop offset="1" style="stop-color:#ff2260"/></linearGradient><circle cx="70.4" cy="45.5" r="3.8" style="fill:url(#c)"/><linearGradient id="d" gradientUnits="userSpaceOnUse" x1="57.438" y1="97.709" x2="108.258" y2="22.179" gradientTransform="matrix(1 0 0 -1 0 98)"><stop offset="0" style="stop-color:#ff736b"/><stop offset="1" style="stop-color:#ff2260"/></linearGradient><circle cx="87.8" cy="45.5" r="3.8" style="fill:url(#d)"/><linearGradient id="e" gradientUnits="userSpaceOnUse" x1="45.396" y1="89.608" x2="96.226" y2="14.078" gradientTransform="matrix(1 0 0 -1 0 98)"><stop offset="0" style="stop-color:#ff736b"/><stop offset="1" style="stop-color:#ff2260"/></linearGradient><path d="M101.9 78.2c18.1-17.4 18.7-46.2 1.3-64.3S56.9-4.7 38.8 12.7 20.2 58.9 37.6 77c16.1 16.8 42.3 18.7 60.7 4.4l-10-10c-14.3 9.9-33.9 6.3-43.8-8s-6.3-33.9 8-43.8c14.3-9.9 33.9-6.3 43.8 8 3.6 5.3 5.6 11.5 5.6 17.9v32.7z" style="fill:url(#e)"/></symbol><symbol id="sprite-logo" viewBox="0 0 390.48 95.49"><defs><linearGradient id="linear-gradient" x1="132.54" y1="48.54" x2="245.49" y2="42.9" gradientUnits="userSpaceOnUse"><stop offset="0" stop-color="#ff736b"/><stop offset="1" stop-color="#ff2260"/></linearGradient><linearGradient id="linear-gradient-2" x1="129.42" y1="50.01" x2="244.64" y2="50.01" xmlns:xlink="http://www.w3.org/1999/xlink" xlink:href="#linear-gradient"/><linearGradient id="linear-gradient-5" x1="163.03" y1="21.06" x2="213.85" y2="96.59" xmlns:xlink="http://www.w3.org/1999/xlink" xlink:href="#linear-gradient"/><linearGradient id="linear-gradient-6" x1="175.06" y1="12.96" x2="225.89" y2="88.49" xmlns:xlink="http://www.w3.org/1999/xlink" xlink:href="#linear-gradient"/><linearGradient id="linear-gradient-7" x1="187.1" y1="4.86" x2="237.92" y2="80.39" xmlns:xlink="http://www.w3.org/1999/xlink" xlink:href="#linear-gradient"/><linearGradient id="linear-gradient-8" x1="175.09" y1="12.94" x2="225.92" y2="88.47" xmlns:xlink="http://www.w3.org/1999/xlink" xlink:href="#linear-gradient"/></defs><title>Logo_UnLock</title><g id="Layer_2" data-name="Layer 2"><g id="Layer_1-2" data-name="Layer 1"><path class="cls-1" d="m351.87 54.59 38.61 40.78-.3-11.78a22.45 22.45 0 0 0-6-14.76l-20-21.53 22.62-27.6A14 14 0 0 0 384.85 0l-33.28 40.59h-8.22V18.53a14 14 0 0 0-14-14v44.69c0 17-13.3 31.41-30.3 31.94A31.29 31.29 0 1 1 298 18.59h1.45a16.44 16.44 0 0 0 16-9.89l.25-.58a44.94 44.94 0 0 0-17.2-3.53 45.29 45.29 0 1 0 .5 90.57c22.58-.45 41.33-18.54 44-40.57ZM158.72 81.35h-39.31V37c0-17.86-16.6-32.38-37-32.38H51.65v76.73H37c-12.68 0-23-8.25-23-18.35V18.53a14 14 0 0 0-14-14V63c0 17.82 16.6 32.35 37 32.35h28.65V18.59h16.76c12.68 0 23 8.24 23 18.38v58.38h69.31a52.06 52.06 0 0 1-16-14Z"/><path d="M150.14 36.36 135.23 25a3.47 3.47 0 0 0-5.57 2.76v41.52a3.47 3.47 0 0 0 5.57 2.72l14.29-10.89a51.47 51.47 0 0 1 .62-24.78Z" style="fill:url(#linear-gradient)"/><circle class="cls-3" cx="182.55" cy="50.01" r="3.78"/><circle class="cls-3" cx="200.04" cy="50.01" r="3.78"/><circle class="cls-3" cx="217.52" cy="50.01" r="3.78"/><circle cx="182.52" cy="50.03" r="3.78" style="fill:url(#linear-gradient-5)"/><circle cx="200.01" cy="50.03" r="3.78" style="fill:url(#linear-gradient-6)"/><circle cx="217.49" cy="50.03" r="3.78" style="fill:url(#linear-gradient-7)"/><path d="M231.51 82.8a45.46 45.46 0 1 0-3.58 3.1l-10-10A31.47 31.47 0 1 1 231.52 50v.45Z" style="fill:url(#linear-gradient-8)"/></g></g></symbol><symbol style="enable-background:new 0 0 36.2 25.5" id="sprite-participant1" viewBox="0 0 36.2 25.5"><title>Manage Participants_1</title><path class="st0" d="M13.4 12.4c2.8-.6 4.9-3.1 4.9-6.1C18.3 2.8 15.5 0 12 0 8.6 0 5.8 2.8 5.8 6.3c0 3 2.1 5.5 4.9 6.1-6.2.7-10.9 6-10.7 12.4v.8h24.2v-1.5c-.2-6.1-4.9-11-10.8-11.7zM7.3 6.3c0-2.6 2.2-4.8 4.8-4.8 2.6 0 4.8 2.2 4.8 4.8 0 2.6-2.2 4.8-4.8 4.8-2.7 0-4.8-2.2-4.8-4.8zM1.5 24c.4-5.2 4.5-9.4 9.8-9.8 5.8-.4 10.9 3.9 11.3 9.8H1.5z"/><path class="st0" d="M25.2 12.7c3.2 0 5.9-2.6 5.9-5.8 0-3.2-2.6-5.9-5.9-5.9-3.2 0-5.9 2.6-5.9 5.8.1 3.3 2.7 5.9 5.9 5.9zm-4.3-5.8c0-2.4 1.9-4.4 4.4-4.4 2.4 0 4.4 1.9 4.4 4.3s-1.9 4.4-4.4 4.4c-2.5 0-4.4-1.9-4.4-4.3zm4.2 5.9c-1.7 0-3.3.4-4.8 1.2.4.3.9.6 1.3 1 4.8-2 10.3.2 12.4 5 .4 1 .7 2 .7 3h-9.1c.1.5.1 1 .1 1.5h10.5v-.8c-.1-6.1-5.1-10.9-11.1-10.9z"/></symbol><symbol style="enable-background:new 0 0 36.2 25.5" id="sprite-participant2" viewBox="0 0 36.2 25.5"><title>Manage Participants_2</title><path class="st0" d="M12.1 12.6c3.5 0 6.3-2.8 6.3-6.3S15.6 0 12.1 0 5.8 2.8 5.8 6.3s2.8 6.3 6.3 6.3zm0 .1C5.4 12.7 0 18.1 0 24.8v.8h24.2v-.8c0-6.7-5.5-12.1-12.1-12.1zm13.1 0c3.2 0 5.9-2.6 5.9-5.8 0-3.2-2.6-5.9-5.9-5.9-3.2 0-5.9 2.6-5.9 5.8.1 3.3 2.7 5.9 5.9 5.9z"/><path class="st0" d="M25.2 12.8c-1.7 0-3.4.4-4.9 1.2.4.3.9.6 1.3 1 2.2 2.1 3.6 5 4 8 .1.5.1 1 .1 1.5h10.5v-.8c0-6-4.9-10.9-11-10.9z"/></symbol><symbol style="enable-background:new 0 0 26.5 25.5" id="sprite-poll1" viewBox="0 0 26.5 25.5"><title>Polls_1</title><path class="st0" d="M0 25.5h7.8V11H0v14.5zm1.5-13h4.8V24H1.5V12.5zm7.9 13h7.8V0H9.4v25.5zm1.5-24h4.8V24h-4.8V1.5zm7.9 2.1v21.9h7.8V3.6h-7.8zM25 24h-4.7V5.1H25V24z"/></symbol><symbol style="enable-background:new 0 0 26.5 25.5" id="sprite-poll2" viewBox="0 0 26.5 25.5"><title>Polls_2</title><path class="st0" d="M0 11h7.8v14.5H0zM9.4 0h7.8v25.5H9.4zm9.4 3.6h7.8v21.9h-7.8z"/></symbol><symbol style="enable-background:new 0 0 31.5 31.5" id="sprite-record1" viewBox="0 0 31.5 31.5"><title>Record_1</title><path class="st0" d="M15.8 0C7.1 0 0 7.1 0 15.8s7.1 15.8 15.8 15.8c8.7 0 15.7-7.1 15.8-15.8C31.5 7.1 24.4 0 15.8 0zm0 30C7.9 30 1.5 23.6 1.5 15.8S7.9 1.5 15.8 1.5C23.6 1.5 30 7.9 30 15.8 30 23.6 23.6 30 15.8 30z"/><circle class="st0" cx="15.8" cy="15.8" r="6"/></symbol><symbol style="enable-background:new 0 0 31.5 31.5" id="sprite-record2" viewBox="0 0 31.5 31.5"><title>Record_2</title><path d="M15.8 0C7.1 0 0 7.1 0 15.8s7.1 15.8 15.8 15.8 15.8-7.1 15.8-15.8C31.5 7.1 24.4 0 15.8 0zm0 21.8c-3.3 0-6-2.7-6-6s2.7-6 6-6 6 2.7 6 6-2.7 6-6 6z" style="fill:#ff2260"/></symbol><symbol style="enable-background:new 0 0 18 20.8" id="sprite-share1" viewBox="0 0 18 20.8"><title>ShareScreen_1</title><path class="st0" d="M0 19.3h18v1.5H0zM8.3 2.9v15.2h1.5V2.9l4.7 4.7 1-1.1L9 0 2.5 6.5l1 1.1z"/></symbol><symbol style="enable-background:new 0 0 27.4 27.4" id="sprite-share2" viewBox="0 0 27.4 27.4"><title>ShareScreen_2</title><path d="M23.3 0H4.1C1.8 0 0 1.8 0 4.1v19.2c0 2.3 1.8 4.1 4.1 4.1h19.2c2.3 0 4.1-1.8 4.1-4.1V4.1c0-2.3-1.9-4.1-4.1-4.1zm-9.6 3.3 6.5 6.5-1.1 1.1-4.7-4.7v15.2H13V6.2l-4.8 4.7-1-1.1 6.5-6.5zm9 20.8h-18v-1.5h18v1.5z" style="fill:#ff2260"/></symbol><symbol style="enable-background:new 0 0 18 19" id="sprite-speaker1" viewBox="0 0 18 19"><title>speaker1</title><g id="Layer_2_1_"><path class="st0" d="M0 0h4v4H0zm7 0h4v4H7zm7 0h4v4h-4zM0 19h18V6H0v13zM2 8h14v9H2V8z" id="Layer_1-2"/></g></symbol><symbol style="enable-background:new 0 0 18 19" id="sprite-speaker2" viewBox="0 0 18 19"><title>speaker2</title><path class="st0" d="M0 0h4v4H0zm7 0h4v4H7zm7 0h4v4h-4zM0 6h18v13H0z"/></symbol><symbol id="sprite-speakerview" viewBox="0 0 18 19"><title>Speaker view</title><g id="Layer_2" data-name="Layer 2"><path class="cls-1" d="M0 0h4v4H0zm7 0h4v4H7zm7 0h4v4h-4zM0 19h18V6H0ZM2 8h14v9H2Z" id="Layer_1-2" data-name="Layer 1"/></g></symbol><symbol style="enable-background:new 0 0 33 20.5" id="sprite-video1" viewBox="0 0 33 20.5"><title>Video_1</title><path class="st0" d="M19 0H3.9C1.7 0 0 1.7 0 3.9v12.7c0 2.2 1.7 3.9 3.9 3.9H19c2.2 0 3.9-1.7 3.9-3.9V3.9C22.9 1.7 21.2 0 19 0zm2.4 16.6c0 1.3-1.1 2.4-2.4 2.4H3.9c-1.3 0-2.4-1.1-2.4-2.4V3.9c0-1.3 1.1-2.4 2.4-2.4H19c1.3 0 2.4 1.1 2.4 2.4v12.7zM33 14.4V6.1c0-.9-.5-1.8-1.3-2.2-.7-.5-1.7-.6-2.5-.2l-4.7 2.2-.1.1v1.6L29.9 5c.4-.2.8-.1 1.1.1.3.2.5.6.5 1v8.3c0 .4-.2.8-.5 1-.3.2-.7.2-1.1.1l-5.5-2.6v1.6l4.8 2.3c.4.2.7.3 1.1.3 1.5 0 2.7-1.2 2.7-2.6v-.1z"/></symbol><symbol style="enable-background:new 0 0 33 20.5" id="sprite-video2" viewBox="0 0 33 20.5"><title>Video_2</title><path class="st0" d="M19 0H3.9C1.7 0 0 1.7 0 3.9v12.7c0 2.2 1.7 3.9 3.9 3.9H19c2.2 0 3.9-1.7 3.9-3.9V3.9C22.9 1.7 21.1 0 19 0zm12.7 3.9c-.7-.5-1.7-.6-2.5-.2l-4.7 2.2-.1.1v8.5l4.8 2.3c.4.2.7.3 1.1.3 1.5 0 2.7-1.2 2.7-2.6V6.1c0-.9-.5-1.8-1.3-2.2z"/></symbol><symbol id="sprite-adduser" viewBox="0 0 32.75 27.5"><title>Invite_2</title><g id="Layer_2" data-name="Layer 2"><g id="Layer_1-2" data-name="Layer 1"><path class="cls-1" d="M12.84 13.59A6.8 6.8 0 1 0 6.05 6.8a6.8 6.8 0 0 0 6.79 6.79ZM25.5 13a7.25 7.25 0 1 0 7.25 7.25A7.26 7.26 0 0 0 25.5 13Zm4.87 8h-4.12v4.12h-1.5V21h-4.13v-1.5h4.13v-4.16h1.5v4.13h4.12Z"/><path class="cls-1" d="M18.93 26a8.66 8.66 0 0 1-1.33-9.55 8 8 0 0 1 .76-1.3A12.85 12.85 0 0 0 0 26.75v.75h20.62a8.61 8.61 0 0 1-1.69-1.5Z"/></g></g></symbol><symbol id="sprite-Chat_2" viewBox="0 0 31.11 32.42"><title>Chat_2</title><g data-name="Layer 2"><path d="M15.55 0C7 0 0 6.21 0 13.84a13.27 13.27 0 0 0 5.45 10.53c.52.46 1.25 3.88 1.6 6.78l.16 1.27 1-.75c2.11-1.55 5.95-4 7.31-4 8.58 0 15.56-6.21 15.56-13.84S24.13 0 15.55 0Zm-7 15.55a2.12 2.12 0 1 1 2.12-2.11 2.11 2.11 0 0 1-2.17 2.11Zm7.05 0a2.12 2.12 0 1 1 2.12-2.11 2.11 2.11 0 0 1-2.17 2.11Zm7.05 0a2.12 2.12 0 1 1 2.12-2.11 2.1 2.1 0 0 1-2.17 2.11Z" style="fill:#ff2260" data-name="Layer 1"/></g></symbol><symbol id="sprite-chat" viewBox="0 0 31.11 32.42"><title>Chat_1</title><g id="Layer_2" data-name="Layer 2"><g id="Layer_1-2" data-name="Layer 1"><path class="cls-1" d="m7.21 32.42-.16-1.27c-.35-2.9-1.08-6.32-1.6-6.78A13.27 13.27 0 0 1 0 13.84C0 6.21 7 0 15.55 0s15.56 6.21 15.56 13.84-7 13.84-15.56 13.84c-1.36 0-5.2 2.44-7.31 4ZM15.55 1.5C7.8 1.5 1.5 7 1.5 13.84a11.73 11.73 0 0 0 4.87 9.33c1 .78 1.67 4.24 2 6.56 1.8-1.24 5.39-3.55 7.17-3.55 7.75 0 14.06-5.54 14.06-12.34S23.3 1.5 15.55 1.5Z"/><circle class="cls-1" cx="8.5" cy="13.44" r="2.11"/><circle class="cls-1" cx="15.55" cy="13.44" r="2.11"/><circle class="cls-1" cx="22.6" cy="13.44" r="2.11"/></g></g></symbol><symbol id="sprite-Invite_1" viewBox="0 0 32.75 27.5"><title>Invite_1</title><g id="Layer_2" data-name="Layer 2"><g id="Layer_1-2" data-name="Layer 1"><path class="cls-1" d="M12.84 13.59a6.8 6.8 0 1 1 6.8-6.79 6.8 6.8 0 0 1-6.8 6.79Zm0-12.09a5.3 5.3 0 1 0 5.3 5.3 5.3 5.3 0 0 0-5.3-5.3ZM25.5 27.47a7.25 7.25 0 1 1 7.25-7.25 7.26 7.26 0 0 1-7.25 7.25Zm0-13a5.75 5.75 0 1 0 5.75 5.75 5.76 5.76 0 0 0-5.75-5.75Z"/><path class="cls-1" d="M20.62 19.47h9.75v1.5h-9.75z"/><path class="cls-1" d="M24.75 15.34h1.5v9.75h-1.5zM18.93 26H1.52a11.36 11.36 0 0 1 16.08-9.55 8 8 0 0 1 .76-1.3A12.85 12.85 0 0 0 0 26.75v.75h20.62a8.61 8.61 0 0 1-1.69-1.5Zm5.66 0h.34v.11h-.34z"/></g></g></symbol><symbol id="sprite-ManageParticipants_1" viewBox="0 0 36.18 25.5"><title>Manage Participants_1</title><g id="Layer_2" data-name="Layer 2"><g id="Layer_1-2" data-name="Layer 1"><path class="cls-1" d="M12.08 12.57a6.29 6.29 0 1 1 6.28-6.28 6.29 6.29 0 0 1-6.28 6.28Zm0-11.07a4.79 4.79 0 1 0 4.78 4.79 4.8 4.8 0 0 0-4.78-4.79Z"/><path class="cls-1" d="M24.15 25.5H0v-.75a12.08 12.08 0 1 1 24.15 0ZM1.53 24h21.1a10.58 10.58 0 0 0-21.1 0Zm23.68-11.27a5.86 5.86 0 1 0-5.85-5.86 5.87 5.87 0 0 0 5.85 5.86Zm0-10.22a4.36 4.36 0 1 1-4.35 4.36 4.36 4.36 0 0 1 4.35-4.36Z"/><path class="cls-1" d="M36.18 23.72A11 11 0 0 0 20.26 14a13.06 13.06 0 0 1 1.27 1 9.44 9.44 0 0 1 13.12 8h-9.13a12.3 12.3 0 0 1 .12 1.5h10.54Z"/></g></g></symbol><symbol id="sprite-perticipant" viewBox="0 0 36.18 25.5"><title>Manage Participants_2</title><g id="Layer_2" data-name="Layer 2"><g id="Layer_1-2" data-name="Layer 1"><path class="cls-1" d="M12.08 12.57a6.29 6.29 0 1 0-6.29-6.28 6.29 6.29 0 0 0 6.29 6.28Zm0 .1A12.09 12.09 0 0 0 0 24.75v.75h24.16v-.75a12.09 12.09 0 0 0-12.08-12.08Zm13.13.06a5.86 5.86 0 1 0-5.85-5.86 5.87 5.87 0 0 0 5.85 5.86Z"/><path class="cls-1" d="M25.21 12.76A10.81 10.81 0 0 0 20.27 14a14.24 14.24 0 0 1 1.26 1 13.48 13.48 0 0 1 4 8 12.3 12.3 0 0 1 .12 1.5h10.53v-.75a11 11 0 0 0-10.97-10.99Z"/></g></g></symbol><symbol id="sprite-poll" viewBox="0 0 26.54 25.5"><title>Polls_2</title><g id="Layer_2" data-name="Layer 2"><path class="cls-1" d="M0 10.96h7.76V25.5H0zM9.39 0h7.76v25.5H9.39zm9.39 3.65h7.76V25.5h-7.76z" id="Layer_1-2" data-name="Layer 1"/></g></symbol><symbol id="sprite-Polls_1" viewBox="0 0 26.54 25.5"><title>Polls_1</title><g id="Layer_2" data-name="Layer 2"><path class="cls-1" d="M7.76 25.5H0V11h7.76ZM1.5 24h4.76V12.46H1.5Zm15.65 1.5H9.39V0h7.76ZM10.89 24h4.76V1.5h-4.76Zm15.65 1.5h-7.76V3.65h7.76ZM20.28 24H25V5.15h-4.72Z" id="Layer_1-2" data-name="Layer 1"/></g></symbol><symbol id="sprite-Record_2" viewBox="0 0 31.5 31.5"><title>Record_2</title><g data-name="Layer 2"><path d="M15.75 0A15.75 15.75 0 1 0 31.5 15.75 15.77 15.77 0 0 0 15.75 0Zm0 21.75a6 6 0 1 1 6-6 6 6 0 0 1-6 6Z" style="fill:#ff2260" data-name="Layer 1"/></g></symbol><symbol id="sprite-record" viewBox="0 0 31.5 31.5"><title>Record_1</title><g id="Layer_2" data-name="Layer 2"><g id="Layer_1-2" data-name="Layer 1"><path class="cls-1" d="M15.75 31.5A15.75 15.75 0 1 1 31.5 15.75 15.77 15.77 0 0 1 15.75 31.5Zm0-30A14.25 14.25 0 1 0 30 15.75 14.26 14.26 0 0 0 15.75 1.5Z"/><circle class="cls-1" cx="15.75" cy="15.75" r="6"/></g></g></symbol><symbol id="sprite-ShareScreen_1" viewBox="0 0 18 20.81"><title>ShareScreen_1</title><g id="Layer_2" data-name="Layer 2"><g id="Layer_1-2" data-name="Layer 1"><path class="cls-1" d="M0 19.31h18v1.5H0zM8.25 1.06h1.5v17h-1.5z"/><path class="cls-1" d="M14.47 7.59 9 2.12 3.53 7.59 2.47 6.53 9 0l6.53 6.53-1.06 1.06z"/></g></g></symbol><symbol id="sprite-ShareScreen_2" viewBox="0 0 27.39 27.39"><title>ShareScreen_2</title><g data-name="Layer 2"><path d="M23.28 0H4.11A4.11 4.11 0 0 0 0 4.11v19.17a4.11 4.11 0 0 0 4.11 4.11h19.17a4.11 4.11 0 0 0 4.11-4.11V4.11A4.11 4.11 0 0 0 23.28 0ZM13.7 3.29l6.53 6.53-1.06 1.06-4.72-4.72v15.19H13V6.16l-4.77 4.72-1.06-1.06Zm9 20.81h-18v-1.5h18Z" style="fill:#ff2260" data-name="Layer 1"/></g></symbol><symbol id="sprite-Video_1" viewBox="0 0 32.97 20.5"><title>Video_1</title><g id="Layer_2" data-name="Layer 2"><path class="cls-1" d="M19 0H3.9A3.91 3.91 0 0 0 0 3.9v12.7a3.91 3.91 0 0 0 3.9 3.9H19a3.91 3.91 0 0 0 3.9-3.9V3.9A3.91 3.91 0 0 0 19 0Zm2.4 16.6A2.41 2.41 0 0 1 19 19H3.9a2.41 2.41 0 0 1-2.4-2.4V3.9a2.41 2.41 0 0 1 2.4-2.4H19a2.41 2.41 0 0 1 2.4 2.4ZM31.74 3.87a2.65 2.65 0 0 0-2.53-.16l-4.69 2.21-.14.08v1.64l5.46-2.57a1.14 1.14 0 0 1 1.1.07 1.11 1.11 0 0 1 .53 1v8.3a1.1 1.1 0 0 1-.53 1 1.14 1.14 0 0 1-1.1.07l-5.46-2.57v1.65l4.83 2.28a2.61 2.61 0 0 0 1.12.25A2.64 2.64 0 0 0 33 14.4V6.1a2.63 2.63 0 0 0-1.26-2.23Z" id="Layer_1-2" data-name="Layer 1"/></g></symbol><symbol id="sprite-video" viewBox="0 0 32.97 20.5"><title>Video_2</title><g id="Layer_2" data-name="Layer 2"><g id="Layer_1-2" data-name="Layer 1"><rect class="cls-1" width="22.88" height="20.5" rx="3.9"/><path class="cls-1" d="M31.74 3.87a2.65 2.65 0 0 0-2.53-.16l-4.69 2.21-.14.08v8.52l4.83 2.28a2.61 2.61 0 0 0 1.12.25A2.64 2.64 0 0 0 33 14.4V6.1a2.63 2.63 0 0 0-1.26-2.23Z"/></g></g></symbol><symbol id="sprite-Whiteboard_1" viewBox="0 0 25.71 30.3"><title>Whiteboard_1</title><g id="Layer_2" data-name="Layer 2"><path class="cls-1" d="M22.5 23.38H3.21A3.21 3.21 0 0 1 0 20.17v-14a3.22 3.22 0 0 1 3.21-3.24H22.5a3.22 3.22 0 0 1 3.21 3.22v14a3.21 3.21 0 0 1-3.21 3.23Zm-19-1.5h18.67a2 2 0 0 0 2-2V6.48a2 2 0 0 0-2-2.05H3.54a2 2 0 0 0-2 2.05v13.36a2 2 0 0 0 2 2.04Zm-.81 7.82 1.38.6 2.32-5.42H4.76L2.69 29.7zm18.95.6 1.38-.6-2.07-4.82h-1.63l2.32 5.42zM12.11 0h1.5v1.4h-1.5z" id="Layer_1-2" data-name="Layer 1"/></g></symbol><symbol id="sprite-Whiteboard_2" viewBox="0 0 25.71 30.3"><title>Whiteboard_2</title><g id="Layer_2" data-name="Layer 2"><g id="Layer_1-2" data-name="Layer 1"><path class="cls-1" d="M22.5 23.38H3.21A3.21 3.21 0 0 1 0 20.17v-14a3.22 3.22 0 0 1 3.21-3.24H22.5a3.22 3.22 0 0 1 3.21 3.22v14a3.21 3.21 0 0 1-3.21 3.23Zm-19-1.5h18.67a2 2 0 0 0 2-2V6.48a2 2 0 0 0-2-2.05H3.54a2 2 0 0 0-2 2.05v13.36a2 2 0 0 0 2 2.04Z"/><path d="m7.23 22.93-.2.45h11.65l-.2-.45 1.38-.59.45 1h1.86a2 2 0 0 0 2-2V8a2 2 0 0 0-2-2.05H3.54A2 2 0 0 0 1.5 8v13.34a2 2 0 0 0 2 2h1.9l.45-1Z" style="fill:none"/><path class="cls-1" d="m7.23 22.93-1.38-.59-.45 1.04h1.63l.2-.45zM2.69 29.7l1.38.6 2.32-5.42H4.76L2.69 29.7zm18.95.6 1.38-.6-2.07-4.82h-1.63l2.32 5.42zm-3.16-7.37.2.45h1.63l-.45-1.04-1.38.59zM12.11 0h1.5v1.4h-1.5zM.94 4h23.91v18.34H.94z"/></g></g></symbol></svg>