<svg xmlns="http://www.w3.org/2000/svg"><symbol id="sprite-grid_view" viewBox="0 0 18 18"><defs><style>.cls-1{fill:#939393}</style></defs><title>Grid_view</title><g id="Layer_2" data-name="Layer 2"><path class="cls-1" d="M0 0h4v4H0zm7 0h4v4H7zm7 0h4v4h-4zM0 7h4v4H0zm7 0h4v4H7zm7 0h4v4h-4zM0 14h4v4H0zm7 0h4v4H7zm7 0h4v4h-4z" id="Layer_1-2" data-name="Layer 1"/></g></symbol><symbol id="sprite-speakerview" viewBox="0 0 18 19"><title>Speaker view</title><g id="Layer_2" data-name="Layer 2"><path class="cls-1" d="M0 0h4v4H0zm7 0h4v4H7zm7 0h4v4h-4zM0 19h18V6H0ZM2 8h14v9H2Z" id="Layer_1-2" data-name="Layer 1"/></g></symbol></svg>