<?xml version="1.0" encoding="utf-8"?>
<!-- Generator: Adobe Illustrator 24.3.0, SVG Export Plug-In . SVG Version: 6.00 Build 0)  -->
<svg version="1.1" id="Layer_1" xmlns="http://www.w3.org/2000/svg" xmlns:xlink="http://www.w3.org/1999/xlink" x="0px" y="0px"
	 viewBox="0 0 23 35.6" style="enable-background:new 0 0 23 35.6;" xml:space="preserve">
<style type="text/css">
	.st0{fill:#79799B;}
</style>
<path class="st0" d="M18.63,22.83L18.61,6.24C18.48,2.78,15.63,0,12.13,0h-1.26c-3.58,0-6.5,2.92-6.5,6.5l0.03,17
	c0.33,3.16,2.93,5.63,6.14,5.79v4.61H8.25v1.69h6.28v-1.69h-2.29v-4.58C15.77,29.26,18.63,26.37,18.63,22.83 M12.13,27.63h-1.26
	c-2.65,0-4.8-2.16-4.8-4.8v-8.15V6.5c0-2.65,2.16-4.8,4.8-4.8h1.26c2.65,0,4.8,2.16,4.8,4.8v16.33
	C16.93,25.48,14.78,27.63,12.13,27.63"/>
</svg>
