<?xml version="1.0" encoding="utf-8"?>
<!-- Generator: Adobe Illustrator 24.3.0, SVG Export Plug-In . SVG Version: 6.00 Build 0)  -->
<svg version="1.1" id="Layer_1" xmlns="http://www.w3.org/2000/svg" xmlns:xlink="http://www.w3.org/1999/xlink" x="0px" y="0px"
	 viewBox="0 0 17 17" style="enable-background:new 0 0 17 17;" xml:space="preserve">
<style type="text/css">
	.st0{fill:#5D5EAA;}
</style>
<g>
	<path class="st0" d="M15.63,17H6.04c-0.75,0-1.37-0.61-1.37-1.37V6.04c0-0.76,0.61-1.37,1.37-1.37h9.59c0.75,0,1.37,0.61,1.37,1.37
		v9.59C17,16.39,16.39,17,15.63,17"/>
	<path class="st0" d="M2.55,11.51V3.65c0-0.61,0.49-1.1,1.1-1.1h7.86c0.45,0,0.81-0.36,0.81-0.81V0.81c0-0.45-0.36-0.81-0.81-0.81
		H1.45C0.65,0,0,0.65,0,1.45v10.06c0,0.45,0.36,0.81,0.81,0.81h0.93C2.19,12.32,2.55,11.96,2.55,11.51"/>
</g>
</svg>
