<?xml version="1.0" encoding="utf-8"?>
<!-- Generator: Adobe Illustrator 24.3.0, SVG Export Plug-In . SVG Version: 6.00 Build 0)  -->
<svg version="1.1" id="Layer_1" xmlns="http://www.w3.org/2000/svg" xmlns:xlink="http://www.w3.org/1999/xlink" x="0px" y="0px"
	 viewBox="0 0 18 20" style="enable-background:new 0 0 18 20;" xml:space="preserve">
<style type="text/css">
	.st0{fill:#5D5EAA;}
</style>
<path class="st0" d="M6,0L6,0l11,0c0.55,0,1,0.45,1,0.99v18.02c0,0.55-0.44,0.99-0.99,0.99H0.99C0.44,20,0,19.55,0,18.99
	c0,0,0,0,0,0V6C0,6,6,0,6,0z M2.83,6H6V2.83L2.83,6z M8,2v5c0,0.55-0.45,1-1,1H2v10h14V2H8z"/>
</svg>
