<?xml version="1.0" encoding="utf-8"?>
<!-- Generator: Adobe Illustrator 24.3.0, SVG Export Plug-In . SVG Version: 6.00 Build 0)  -->
<svg version="1.1" id="Layer_1" xmlns="http://www.w3.org/2000/svg" xmlns:xlink="http://www.w3.org/1999/xlink" x="0px" y="0px"
	 viewBox="0 0 89.91 99.2" style="enable-background:new 0 0 89.91 99.2;" xml:space="preserve">
<style type="text/css">
	.st0{fill:#303030;}
</style>
<path class="st0" d="M54.18,0H13.75C6.17,0,0,6.17,0,13.75v71.69C0,93.03,6.17,99.2,13.75,99.2h62.41c7.58,0,13.75-6.16,13.75-13.75
	V35.36L54.18,0z M55.53,7.94l26.51,26.05h-19.4c-3.92,0-7.11-3.19-7.11-7.11V7.94z M76.16,94.57H13.75c-5.03,0-9.12-4.09-9.12-9.12
	V13.75c0-5.04,4.09-9.13,9.12-9.13H50.9v22.26c0,6.47,5.26,11.75,11.74,11.75h22.65v46.82C85.29,90.48,81.19,94.57,76.16,94.57"/>
</svg>
