<?xml version="1.0" encoding="utf-8"?>
<!-- Generator: Adobe Illustrator 24.3.0, SVG Export Plug-In . SVG Version: 6.00 Build 0)  -->
<svg version="1.1" id="Layer_1" xmlns="http://www.w3.org/2000/svg" xmlns:xlink="http://www.w3.org/1999/xlink" x="0px" y="0px"
	 viewBox="0 0 19.6 20" style="enable-background:new 0 0 19.6 20;" xml:space="preserve">
<style type="text/css">
	.st0{fill:none;}
	.st1{fill:#FFFFFF;}
</style>
<path class="st0" d="M0,0h24v24H0V0z"/>
<path class="st1" d="M1.1,5.5C2.8,2.1,6.2,0,10,0c2.7,0,5,1,6.7,2.6l-2.9,2.9c-1-1-2.4-1.5-3.8-1.5C7.4,4,5.2,5.7,4.4,8.1
	C4.2,8.7,4.1,9.3,4.1,10s0.1,1.3,0.3,1.9c0.8,2.4,3,4.1,5.6,4.1c1.3,0,2.5-0.4,3.4-1c1-0.7,1.8-1.8,2-3H10V8.2h9.4
	c0.1,0.7,0.2,1.3,0.2,2c0,3-1.1,5.6-3,7.3C15,19.1,12.7,20,10,20C4.5,20,0,15.5,0,10c0,0,0,0,0,0C0,8.4,0.4,6.9,1.1,5.5z"/>
</svg>
