<?xml version="1.0" encoding="utf-8"?>
<!-- Generator: Adobe Illustrator 24.3.0, SVG Export Plug-In . SVG Version: 6.00 Build 0)  -->
<svg version="1.1" id="Layer_1" xmlns="http://www.w3.org/2000/svg" xmlns:xlink="http://www.w3.org/1999/xlink" x="0px" y="0px"
	 viewBox="0 0 89.39 115.28" style="enable-background:new 0 0 89.39 115.28;" xml:space="preserve">
<style type="text/css">
	.st0{fill:#5D5EAA;}
</style>
<path class="st0" d="M84.2,15.91h-0.08c-2.86,0-5.18,2.32-5.18,5.19v24.77c0,1.46-1.19,2.65-2.65,2.65c-1.46,0-2.66-1.19-2.66-2.65
	V10.49c0-2.87-2.31-5.19-5.18-5.19h-0.08c-2.86,0-5.19,2.32-5.19,5.19v32.25c0,1.46-1.18,2.65-2.64,2.65h-0.47
	c-1.46,0-2.65-1.19-2.65-2.65V5.18c0-2.86-2.32-5.18-5.19-5.18s-5.18,2.32-5.18,5.18v35.69c0,1.46-1.19,2.65-2.66,2.65h-0.23
	c-1.47,0-2.66-1.19-2.66-2.65V10.65c0-2.87-2.32-5.19-5.18-5.19h-0.06c-2.88,0-5.2,2.33-5.19,5.2l0.15,64.69
	c-8.59-5.61-15.6-12.17-20.96-12.1C3.74,63.39,0,68.8,0,68.8s9.05,9.83,14.04,16.22c12.13,18.77,25.3,25.74,25.3,25.74
	s0.5,0.28,0.91,0.48c4.25,2.5,9.16,4.04,14.46,4.04h5.99c15.84,0,28.68-12.84,28.68-28.69v-4.94V69.58V21.1
	C89.39,18.23,87.07,15.91,84.2,15.91"/>
</svg>
