<?xml version="1.0" encoding="utf-8"?>
<!-- Generator: Adobe Illustrator 24.0.1, SVG Export Plug-In . SVG Version: 6.00 Build 0)  -->
<svg version="1.1" id="Layer_1" xmlns="http://www.w3.org/2000/svg" xmlns:xlink="http://www.w3.org/1999/xlink" x="0px" y="0px"
	 viewBox="0 0 36.2 25.5" style="enable-background:new 0 0 36.2 25.5;" xml:space="preserve">
<style type="text/css">
	.st0{fill:#FF2260;}
</style>
<title>Manage Participants_2</title>
<g>
	<path class="st0" d="M12.1,12.6c3.5,0,6.3-2.8,6.3-6.3S15.6,0,12.1,0C8.6,0,5.8,2.8,5.8,6.3c0,0,0,0,0,0
		C5.8,9.8,8.6,12.6,12.1,12.6z"/>
	<path class="st0" d="M12.1,12.7C5.4,12.7,0,18.1,0,24.8v0.8h24.2v-0.8C24.2,18.1,18.7,12.7,12.1,12.7z"/>
	<path class="st0" d="M25.2,12.7c3.2,0,5.9-2.6,5.9-5.8c0-3.2-2.6-5.9-5.9-5.9c-3.2,0-5.9,2.6-5.9,5.8c0,0,0,0,0,0
		C19.4,10.1,22,12.7,25.2,12.7z"/>
	<path class="st0" d="M25.2,12.8c-1.7,0-3.4,0.4-4.9,1.2c0.4,0.3,0.9,0.6,1.3,1c2.2,2.1,3.6,5,4,8c0.1,0.5,0.1,1,0.1,1.5h10.5v-0.8
		C36.2,17.7,31.3,12.8,25.2,12.8z"/>
</g>
</svg>
