<?xml version="1.0" encoding="utf-8"?>
<!-- Generator: Adobe Illustrator 24.3.0, SVG Export Plug-In . SVG Version: 6.00 Build 0)  -->
<svg version="1.1" id="Layer_1" xmlns="http://www.w3.org/2000/svg" xmlns:xlink="http://www.w3.org/1999/xlink" x="0px" y="0px"
	 viewBox="0 0 24 24" style="enable-background:new 0 0 24 24;" xml:space="preserve">
<style type="text/css">
	.st0{fill:#79799B;}
</style>
<path class="st0" d="M12,0C5.38,0,0,5.38,0,12s5.38,12,12,12s12-5.38,12-12S18.62,0,12,0z M12,3.6c1.99,0,3.6,1.61,3.6,3.6
	s-1.61,3.6-3.6,3.6S8.4,9.19,8.4,7.2S10.01,3.6,12,3.6z M12,20.64c-3,0-5.65-1.54-7.2-3.86c0.04-2.39,4.8-3.7,7.2-3.7
	c2.39,0,7.16,1.31,7.2,3.7C17.65,19.1,15,20.64,12,20.64z"/>
</svg>
