<?xml version="1.0" encoding="utf-8"?>
<!-- Generator: Adobe Illustrator 24.0.1, SVG Export Plug-In . SVG Version: 6.00 Build 0)  -->
<svg version="1.1" id="Layer_1" xmlns="http://www.w3.org/2000/svg" xmlns:xlink="http://www.w3.org/1999/xlink" x="0px" y="0px"
	 viewBox="0 0 33 20.5" style="enable-background:new 0 0 33 20.5;" xml:space="preserve">
<style type="text/css">
	.st0{fill:#FF2260;}
</style>
<title>Video_1</title>
<g>
	<path class="st0" d="M19,0H3.9C1.7,0,0,1.7,0,3.9v12.7c0,2.2,1.7,3.9,3.9,3.9H19c2.2,0,3.9-1.7,3.9-3.9V3.9C22.9,1.7,21.2,0,19,0z
		 M21.4,16.6c0,1.3-1.1,2.4-2.4,2.4H3.9c-1.3,0-2.4-1.1-2.4-2.4V3.9c0-1.3,1.1-2.4,2.4-2.4H19c1.3,0,2.4,1.1,2.4,2.4V16.6z"/>
	<path class="st0" d="M33,14.4V6.1c0-0.9-0.5-1.8-1.3-2.2C31,3.4,30,3.3,29.2,3.7l-4.7,2.2L24.4,6v1.6l5.5-2.6
		c0.4-0.2,0.8-0.1,1.1,0.1c0.3,0.2,0.5,0.6,0.5,1v8.3c0,0.4-0.2,0.8-0.5,1c-0.3,0.2-0.7,0.2-1.1,0.1l-5.5-2.6v1.6l4.8,2.3
		c0.4,0.2,0.7,0.3,1.1,0.3c1.5,0,2.7-1.2,2.7-2.6C33,14.5,33,14.4,33,14.4z"/>
</g>
</svg>
