<svg xmlns="http://www.w3.org/2000/svg" viewBox="0 0 38.4 26.59"><defs><style>.cls-1{fill:#ff004f;}</style></defs><title>video_2</title><g id="Layer_2" data-name="Layer 2"><g id="Layer_1-2" data-name="Layer 1"><path class="cls-1" d="M25.31,7.52v13a2.71,2.71,0,0,1-2.71,2.71H7.78l-1.9,1.7H22.6A4.41,4.41,0,0,0,27,20.47V6.12s0-.07,0-.1Z"/><path class="cls-1" d="M37,6.09a3,3,0,0,0-2.87-.18l-5.29,2.5-.16.07v1.87l6.17-2.9a1.27,1.27,0,0,1,1.24.08,1.25,1.25,0,0,1,.6,1.08V18a1.29,1.29,0,0,1-1.84,1.17L28.7,16.24v1.87l5.45,2.57a3,3,0,0,0,1.27.29,3,3,0,0,0,3-3V8.61A3,3,0,0,0,37,6.09Z"/><path class="cls-1" d="M28.3,0l-3,2.68a4.38,4.38,0,0,0-2.71-1h-17a4.41,4.41,0,0,0-4.4,4.4V20.47A4.36,4.36,0,0,0,2.22,23.3L0,25.28l1.18,1.31L29.48,1.31ZM3.47,22.18h0a2.71,2.71,0,0,1-.62-1.71V6.12A2.72,2.72,0,0,1,5.56,3.41h17A2.66,2.66,0,0,1,24,3.83Z"/></g></g></svg>