<?xml version="1.0" encoding="utf-8"?>
<!-- Generator: Adobe Illustrator 24.0.1, SVG Export Plug-In . SVG Version: 6.00 Build 0)  -->
<svg version="1.1" id="Layer_1" xmlns="http://www.w3.org/2000/svg" xmlns:xlink="http://www.w3.org/1999/xlink" x="0px" y="0px"
	 viewBox="0 0 33 20.5" style="enable-background:new 0 0 33 20.5;" xml:space="preserve">
<style type="text/css">
	.st0{fill:#FF2260;}
</style>
<title>Video_2</title>
<g>
	<path class="st0" d="M19,0H3.9C1.7,0,0,1.7,0,3.9v12.7c0,2.2,1.7,3.9,3.9,3.9H19c2.2,0,3.9-1.7,3.9-3.9V3.9C22.9,1.7,21.1,0,19,0z"
		/>
	<path class="st0" d="M31.7,3.9C31,3.4,30,3.3,29.2,3.7l-4.7,2.2L24.4,6v8.5l4.8,2.3c0.4,0.2,0.7,0.3,1.1,0.3c1.5,0,2.7-1.2,2.7-2.6
		c0,0,0,0,0,0V6.1C33,5.2,32.5,4.3,31.7,3.9z"/>
</g>
</svg>
